<?xml version="1.0" standalone="no"?>
<!DOCTYPE svg PUBLIC "-//W3C//DTD SVG 20010904//EN"
 "http://www.w3.org/TR/2001/REC-SVG-20010904/DTD/svg10.dtd">
<svg version="1.0" xmlns="http://www.w3.org/2000/svg"
 width="362.000000pt" height="481.000000pt" viewBox="0 0 362.000000 481.000000"
 preserveAspectRatio="xMidYMid meet">
<metadata>
Created by potrace 1.15, written by Peter Selinger 2001-2017
</metadata>
<g transform="translate(0.000000,481.000000) scale(0.100000,-0.100000)"
fill="#000000" stroke="none">
<path d="M1171 4801 c-9 -6 -11 -18 -7 -35 7 -28 -3 -33 -35 -16 -14 8 -19 7
-19 -1 0 -8 -14 -9 -42 -5 -24 3 -49 2 -56 -3 -14 -9 -31 -69 -32 -113 0 -32
46 -105 72 -114 33 -10 13 -40 -27 -39 -32 1 -56 -37 -49 -77 4 -18 11 -38 16
-45 6 -7 6 -19 0 -30 -14 -26 -64 -67 -82 -68 -16 0 -60 -71 -60 -98 0 -10
-21 -38 -46 -62 -42 -41 -44 -46 -30 -61 20 -20 21 -31 1 -14 -8 7 -21 10 -29
7 -8 -3 -16 -1 -18 5 -2 6 -14 -3 -27 -21 -21 -29 -28 -52 -34 -106 -1 -11 -8
-24 -14 -28 -7 -4 -13 -15 -13 -24 0 -9 -9 -27 -21 -39 -21 -22 -20 -64 2 -64
5 0 9 -4 9 -10 0 -5 -7 -10 -15 -10 -8 0 -24 -9 -35 -20 -11 -11 -27 -20 -35
-20 -8 0 -15 -4 -15 -10 0 -5 -6 -10 -13 -10 -8 0 -20 -12 -28 -27 -21 -43
-22 -49 -8 -35 14 13 58 18 45 5 -4 -5 -11 -8 -14 -9 -4 0 -15 -4 -25 -9 -10
-4 -31 -5 -47 -1 -28 5 -30 3 -30 -24 0 -33 14 -38 41 -14 11 10 19 12 24 5 3
-6 1 -11 -4 -11 -6 0 -11 -11 -11 -25 0 -16 -6 -25 -15 -25 -8 0 -15 5 -15 10
0 6 -5 10 -12 10 -6 0 -8 -3 -5 -7 4 -3 2 -12 -3 -18 -17 -21 40 -16 87 7 42
20 49 44 15 50 -13 2 -6 13 26 43 23 22 42 44 42 49 0 6 -6 1 -14 -10 -10 -13
-18 -16 -25 -9 -18 18 30 61 69 60 36 0 43 -16 25 -58 -18 -42 51 -56 138 -28
19 7 39 11 43 10 5 -1 20 -1 33 0 18 1 21 4 12 14 -8 10 -7 17 1 25 16 16 29
15 22 -1 -8 -21 23 -42 40 -28 11 10 16 9 23 -4 15 -26 119 -54 162 -43 101
25 95 26 146 -43 47 -64 93 -98 130 -98 12 0 15 3 6 6 -7 3 -26 19 -42 36 -16
16 -29 25 -29 18 0 -9 -4 -8 -14 1 -13 11 -12 16 1 38 9 14 12 22 8 17 -10 -9
-45 21 -45 38 0 7 7 15 14 18 10 4 13 1 10 -7 -3 -9 7 -20 26 -30 25 -12 29
-12 20 -2 -15 19 17 30 50 18 20 -8 34 0 94 50 38 32 71 56 74 54 2 -3 16 6
30 20 15 13 32 24 39 24 7 0 13 4 13 9 0 13 170 68 267 86 75 14 91 14 170 0
49 -9 99 -23 111 -32 14 -9 34 -12 48 -9 17 5 26 2 30 -9 4 -8 12 -15 18 -15
7 0 25 -13 41 -30 16 -16 33 -30 38 -30 14 0 -2 68 -21 92 -40 50 -110 118
-121 118 -6 0 -11 4 -11 9 0 5 -11 12 -25 15 -13 3 -36 17 -51 31 -34 31 -68
34 -59 5 5 -15 2 -20 -13 -20 -15 0 -19 5 -15 19 7 27 -30 49 -92 55 -28 3
-75 12 -105 21 -30 8 -67 15 -81 15 -15 0 -32 6 -38 13 -6 8 -30 19 -53 26
-43 13 -87 38 -100 56 -4 5 -8 22 -8 36 0 15 -7 32 -15 39 -23 19 -19 26 28
49 l42 21 -33 0 c-23 0 -40 7 -53 23 -29 34 -23 40 32 33 34 -5 49 -4 44 4 -3
5 -17 10 -30 10 -13 0 -27 5 -30 10 -3 6 -1 10 5 10 7 0 -2 18 -19 39 -31 39
-31 40 -9 43 21 3 67 -7 123 -27 19 -7 19 -7 -1 8 -17 13 -75 30 -107 32 -14
0 -37 37 -37 58 0 10 -4 16 -9 12 -5 -3 -12 -1 -16 5 -3 6 4 14 17 19 l23 8
-23 7 c-12 4 -22 11 -22 16 0 5 8 6 18 3 16 -6 16 -6 0 10 -9 9 -21 17 -25 17
-5 0 -19 14 -32 31 -13 17 -29 28 -36 25 -8 -3 -25 8 -38 23 -13 16 -40 43
-60 60 l-36 32 4 -30 4 -30 -35 21 c-19 11 -34 24 -34 29 0 11 -21 11 -39 0z"/>
<path d="M1648 3659 c6 -15 7 -31 1 -40 -7 -11 -9 -9 -9 9 0 17 -6 22 -27 22
-19 0 -24 -3 -15 -9 7 -4 15 -17 16 -27 3 -16 12 -19 58 -19 48 0 54 -2 50
-17 -6 -23 15 -48 34 -41 8 3 14 0 14 -6 0 -15 -26 -14 -42 2 -8 9 -21 11 -33
6 -14 -5 -15 -8 -5 -8 9 -1 16 -10 16 -21 0 -11 -5 -18 -11 -16 -5 2 -9 9 -7
15 2 11 -10 15 -35 12 -18 -2 -27 20 -12 30 8 4 27 6 43 3 25 -4 27 -3 16 11
-8 10 -22 13 -42 10 -19 -4 -37 0 -47 8 -26 22 -51 29 -44 11 3 -8 16 -17 29
-20 13 -3 24 -10 24 -15 0 -16 -23 -9 -58 17 l-34 27 6 -24 c7 -23 6 -23 -8
-5 -14 18 -15 18 -13 -3 1 -12 8 -21 18 -21 10 0 20 -6 22 -12 4 -10 8 -10 15
1 8 11 14 11 33 -3 22 -15 22 -16 4 -17 -19 0 -19 -1 -2 -8 17 -6 17 -8 3 -20
-8 -7 -20 -10 -26 -6 -6 4 -23 4 -38 0 -18 -4 -22 -9 -13 -14 20 -13 -4 -24
-51 -25 -29 -1 -42 4 -53 20 -13 20 -12 22 16 28 16 3 29 10 29 15 0 6 -8 8
-17 4 -15 -5 -14 -3 2 10 19 16 19 16 1 17 -10 0 -25 -8 -32 -17 -12 -16 -15
-16 -23 -3 -8 11 -9 8 -7 -13 4 -43 36 -78 73 -80 17 -1 29 -5 26 -9 -2 -5 0
-8 6 -8 5 0 13 5 17 11 3 6 16 8 28 4 58 -18 87 -22 91 -14 3 5 25 6 49 3 38
-6 44 -4 48 14 3 12 3 23 0 26 -10 11 -50 6 -54 -5 -3 -8 -10 -8 -26 2 -19 12
-24 12 -31 0 -5 -8 -16 -11 -26 -7 -10 3 -25 1 -34 -6 -14 -12 -14 -11 -2 5 7
9 19 17 26 17 7 0 19 10 28 23 14 21 16 21 33 5 26 -23 26 -23 51 -10 19 10
25 9 47 -12 22 -22 27 -24 55 -13 37 14 41 37 7 37 -13 0 -26 7 -30 15 -3 8
-1 15 4 15 19 0 -14 39 -35 42 -17 3 -17 4 -4 10 10 4 25 -1 37 -13 19 -17 42
-25 42 -15 0 3 -4 16 -10 30 -6 17 -6 26 0 26 6 0 10 -7 10 -15 0 -9 6 -12 15
-9 8 4 15 1 15 -5 0 -6 5 -11 11 -11 6 0 0 13 -13 29 -14 16 -29 26 -38 23
-13 -5 -13 -3 -2 11 16 19 10 33 -18 40 -17 4 -20 2 -14 -15 5 -17 3 -19 -18
-14 -20 6 -20 5 -5 -4 9 -6 21 -9 26 -6 5 3 12 -1 15 -10 4 -11 2 -15 -8 -11
-8 3 -16 1 -18 -5 -3 -8 -11 -9 -24 -3 -10 4 -21 9 -24 10 -3 1 -16 7 -30 14
-24 11 -24 11 8 6 20 -3 31 -1 27 5 -3 6 -15 10 -25 10 -11 0 -29 10 -40 23
l-21 22 9 -26z"/>
<path d="M2350 3614 c0 -4 8 -12 17 -19 14 -10 15 -16 5 -27 -6 -8 -9 -18 -5
-21 3 -4 2 -7 -4 -7 -5 0 -16 12 -24 26 l-14 26 -5 -23 c-3 -13 -14 -25 -23
-27 -21 -4 -75 -52 -59 -52 6 0 14 5 17 10 5 8 11 8 19 1 9 -7 19 -6 35 5 12
9 28 13 36 10 18 -7 20 -24 3 -23 -35 1 -47 -4 -42 -17 4 -11 0 -13 -15 -9
-12 3 -21 9 -21 14 0 16 -48 -14 -53 -33 -4 -13 -10 -17 -19 -12 -11 6 -11 5
0 -8 10 -13 9 -16 -8 -21 -11 -3 -20 -11 -19 -19 0 -10 2 -10 6 0 2 6 9 12 14
12 5 0 4 -9 -3 -19 -7 -11 -15 -18 -19 -15 -14 9 -20 -36 -7 -58 7 -13 13 -39
13 -58 0 -24 9 -44 28 -64 15 -16 26 -34 24 -40 -5 -13 -51 -9 -55 4 -2 6 -10
10 -18 10 -8 0 -14 4 -14 8 0 4 -10 8 -22 9 -22 2 -22 2 -3 -9 11 -6 22 -14
25 -18 3 -4 20 -12 38 -18 25 -9 38 -8 53 1 17 10 23 9 35 -7 8 -11 14 -16 14
-11 0 5 5 4 12 -3 18 -18 25 -15 24 10 -1 28 28 36 50 13 15 -14 19 -13 55 20
30 27 44 33 57 27 9 -5 28 -6 42 -1 16 4 19 7 8 8 -10 1 -18 6 -18 11 0 6 -6
10 -13 10 -7 0 -21 6 -31 13 -20 14 -12 47 11 47 8 0 12 4 8 10 -3 5 -15 6
-28 1 -12 -4 -27 -6 -33 -4 -6 2 -14 -5 -17 -17 -3 -11 -11 -20 -19 -20 -10 0
-10 2 0 8 10 7 9 16 -4 48 -17 41 -48 77 -58 67 -3 -3 4 -14 16 -24 14 -13 16
-19 7 -19 -8 0 -27 14 -43 30 -23 25 -26 33 -16 45 7 8 19 15 27 15 9 0 13 6
10 13 -3 9 3 14 22 14 20 0 30 -9 44 -34 9 -19 17 -40 17 -47 0 -8 8 -20 17
-27 15 -12 16 -12 10 4 -6 17 -6 17 24 0 17 -10 51 -36 74 -58 28 -25 53 -40
69 -40 14 1 35 -7 48 -17 l23 -19 -27 7 c-18 4 -28 2 -28 -5 0 -8 -5 -9 -19
-1 -27 14 -36 13 -22 -4 9 -11 9 -15 -1 -19 -7 -2 4 -8 25 -12 22 -4 42 -3 50
3 6 5 35 13 62 17 64 8 85 19 67 37 -9 9 -12 9 -12 0 0 -14 -29 -16 -50 -2
-12 7 -12 12 -3 21 15 15 -11 38 -44 39 -12 0 -25 5 -28 10 -3 6 -11 10 -16
10 -6 0 -7 -4 -4 -10 3 -5 1 -10 -4 -10 -6 0 -11 6 -11 13 0 18 33 44 49 39
10 -3 11 0 1 17 -6 12 -9 27 -6 34 2 7 5 4 5 -6 1 -11 6 -15 13 -11 6 4 9 3 6
-2 -2 -5 6 -19 19 -31 29 -28 29 -20 2 24 -21 33 -21 35 -3 49 18 15 18 15 -3
11 -13 -3 -23 -1 -23 4 0 5 5 9 11 9 5 0 7 5 4 11 -4 6 -14 8 -22 5 -11 -5
-13 -2 -9 10 3 8 6 17 6 20 0 2 8 0 18 -3 15 -6 15 -5 3 10 -7 9 -17 14 -22
11 -5 -3 -9 -1 -9 5 0 5 -14 12 -31 16 -28 6 -29 8 -12 21 16 12 16 15 3 24
-19 13 -33 13 -25 0 4 -6 -2 -6 -17 0 -13 6 -31 13 -41 16 -10 4 -16 12 -13
19 3 10 -8 13 -43 11 -33 -1 -47 -5 -44 -13 3 -7 -3 -10 -16 -6 -11 3 -22 11
-25 19 -5 14 -36 20 -36 8z"/>
<path d="M767 3565 c3 -11 -2 -15 -17 -15 -28 0 -130 -47 -130 -60 0 -15 23
-25 28 -12 8 26 172 87 172 64 0 -6 3 -17 6 -25 3 -10 -3 -16 -21 -19 -20 -4
-23 -3 -14 8 9 11 8 14 -4 14 -9 0 -19 -5 -22 -10 -5 -8 -11 -8 -20 0 -9 8
-20 3 -41 -19 -16 -15 -42 -31 -57 -35 -28 -7 -96 11 -108 28 -4 4 -10 3 -13
-3 -4 -6 -2 -11 3 -11 6 0 11 -6 11 -13 0 -8 -12 -12 -34 -12 -19 1 -35 -1
-34 -4 2 -19 -4 -22 -17 -11 -12 10 -15 10 -15 -3 0 -9 -13 -17 -35 -21 -22
-4 -41 -17 -52 -32 -12 -19 -18 -22 -24 -12 -12 18 -11 1 1 -21 6 -13 5 -24
-5 -37 -14 -19 -14 -19 -15 0 0 18 -1 18 -19 2 -13 -12 -19 -13 -17 -4 0 7 -3
14 -9 14 -5 1 -9 -2 -7 -7 1 -5 -4 -9 -11 -9 -7 0 -23 -13 -35 -30 -13 -16
-18 -30 -13 -30 6 0 15 9 21 20 14 26 46 26 60 0 10 -19 10 -20 -9 -8 -17 10
-24 9 -43 -9 -28 -27 -52 -33 -53 -14 0 8 -5 16 -11 18 -16 5 -27 -57 -13 -73
14 -17 -2 -19 -19 -2 -8 8 -12 9 -12 1 0 -6 6 -13 13 -16 8 -3 3 -14 -15 -34
-16 -16 -28 -32 -28 -36 0 -13 28 -7 33 7 3 8 16 20 28 26 21 12 21 12 -2 -30
-13 -23 -36 -48 -50 -55 -41 -22 -61 -59 -49 -91 7 -16 7 -31 1 -38 -11 -14
13 -51 27 -42 6 3 12 1 14 -5 2 -5 32 -27 68 -47 70 -41 87 -70 68 -122 -8
-25 -6 -36 12 -65 12 -19 23 -52 24 -73 1 -20 9 -54 19 -75 9 -21 17 -64 18
-95 1 -63 20 -157 38 -189 6 -12 13 -52 15 -90 2 -37 5 -68 6 -68 1 0 3 -11 6
-25 2 -14 8 -34 13 -45 5 -11 18 -42 27 -70 10 -27 28 -64 39 -81 12 -17 29
-62 39 -100 10 -38 28 -92 42 -119 13 -28 24 -55 24 -60 0 -6 41 -50 90 -99
50 -49 90 -97 90 -107 0 -24 25 -81 47 -104 32 -36 103 -134 115 -160 6 -14
15 -25 20 -25 4 0 8 -7 8 -15 0 -8 4 -15 9 -15 4 0 11 -30 13 -67 6 -81 20
-115 93 -222 17 -24 37 -55 45 -70 8 -14 18 -28 21 -31 4 -3 10 -16 14 -30 11
-40 53 -121 91 -175 11 -17 31 -52 45 -78 13 -27 52 -78 87 -114 34 -36 62
-70 62 -74 0 -9 122 -69 205 -102 22 -9 80 -23 130 -33 123 -23 202 -15 296
29 41 19 101 40 134 47 79 15 196 48 215 60 8 6 38 21 65 34 28 13 58 32 68
44 18 19 18 22 2 44 l-16 23 6 -30 c3 -16 2 -24 -1 -17 -6 13 -44 17 -44 4 0
-5 -10 -8 -22 -6 -13 1 -27 3 -32 3 -4 1 -6 8 -2 16 3 8 1 15 -4 15 -6 0 -10
-4 -10 -10 0 -5 -7 -7 -15 -3 -9 3 -13 8 -10 11 12 12 41 10 63 -4 24 -16 42
-11 42 12 0 8 -10 14 -26 14 -22 0 -25 2 -14 15 11 13 8 15 -15 15 -20 0 -26
-4 -21 -15 3 -9 0 -15 -9 -15 -18 0 -18 0 0 42 13 32 19 36 61 41 51 5 68 21
53 50 -8 14 -7 17 3 15 7 -2 27 7 45 20 17 12 34 22 38 22 3 0 27 10 53 21
l46 21 28 -31 c15 -17 28 -37 28 -44 0 -6 -5 -4 -11 6 -5 9 -15 17 -22 17 -14
-1 -67 -45 -67 -56 0 -4 11 3 24 16 15 13 32 20 40 17 18 -7 22 -27 6 -27 -30
0 -63 -32 -54 -53 8 -22 18 -21 35 1 13 15 12 16 -3 3 -38 -29 -15 4 34 52 48
45 50 50 32 60 -10 6 -25 17 -32 24 -11 11 -9 15 12 23 15 5 31 21 36 35 14
36 13 37 -10 18 -11 -10 -152 -73 -312 -140 -300 -126 -308 -128 -308 -78 0
30 12 43 45 51 39 9 43 16 50 90 7 60 8 62 42 72 28 9 44 8 71 -3 19 -8 36
-15 37 -15 1 0 5 24 9 52 3 29 19 93 35 141 38 116 64 143 181 187 50 18 93
37 95 40 3 4 -109 5 -248 3 l-252 -5 -190 125 c-303 199 -386 257 -380 268 4
5 11 7 16 4 12 -8 47 52 55 93 3 18 10 34 14 37 10 6 65 -13 153 -54 72 -33
98 -40 57 -15 l-25 15 28 -6 c16 -3 63 -22 105 -41 148 -68 256 -105 356 -120
85 -13 200 -41 252 -61 9 -3 15 8 19 34 7 41 23 118 31 145 4 13 -10 21 -63
38 -37 13 -75 29 -85 37 -9 8 -36 16 -60 18 -23 1 -151 36 -283 78 -132 41
-311 96 -397 123 -160 48 -172 56 -149 93 9 14 199 -41 701 -203 124 -40 254
-80 290 -89 60 -15 66 -15 83 1 17 15 17 16 0 23 -10 3 -57 12 -106 19 -58 8
-91 18 -100 29 -6 9 -16 17 -22 18 -5 0 -116 35 -245 76 -129 41 -282 89 -340
106 -58 18 -125 39 -149 48 l-44 16 6 58 c3 32 13 75 24 96 16 35 21 38 53 35
19 -2 151 -35 293 -73 142 -38 265 -69 274 -69 11 0 14 6 9 23 -3 12 -6 27 -6
34 0 12 -49 24 -305 73 -183 35 -217 46 -213 69 6 28 92 23 306 -19 112 -22
210 -40 216 -40 7 0 27 23 44 50 31 50 51 60 82 40 11 -7 5 -8 -20 -4 -69 13
-15 -15 222 -114 130 -54 243 -104 251 -111 11 -9 17 -9 22 -1 4 6 5 12 4 14
-5 3 -64 30 -126 56 -29 12 -51 25 -50 29 1 3 -7 18 -17 33 -14 21 -17 37 -12
65 13 71 37 133 52 133 9 0 13 -4 10 -9 -9 -13 22 -34 40 -27 12 5 14 1 8 -16
-6 -21 -5 -22 11 -8 17 14 17 13 8 -5 -12 -22 -12 -75 -1 -75 4 0 9 12 11 28
l4 27 2 -29 c0 -16 -6 -37 -14 -46 -14 -16 -14 -18 -1 -23 9 -4 18 -2 21 3 4
6 15 10 26 10 11 0 22 7 25 15 4 8 10 15 15 15 6 0 5 -8 -1 -19 -13 -25 -13
-78 0 -86 12 -8 13 -95 1 -95 -14 0 -1 -38 15 -44 8 -3 17 1 20 9 4 8 12 15
19 15 9 0 16 18 21 48 7 45 22 97 23 77 2 -32 -30 -188 -43 -214 -21 -39 -21
-38 17 -44 41 -6 73 26 81 80 3 21 5 39 6 41 0 1 4 2 8 2 11 0 3 -92 -9 -104
-5 -6 -9 -16 -9 -23 0 -18 37 -16 44 2 3 8 11 14 17 13 7 -2 18 7 24 19 7 13
18 31 26 40 8 10 24 36 34 57 11 22 24 48 30 58 9 17 33 23 80 21 33 -2 81 16
111 42 15 13 31 22 35 19 4 -2 16 9 25 26 10 16 22 30 26 30 13 0 9 30 -4 30
-8 0 -6 4 3 10 15 9 15 14 4 47 -7 21 -10 43 -5 48 10 13 -6 54 -25 61 -8 4
-15 18 -15 33 0 15 -6 33 -12 40 -11 11 -10 12 1 6 10 -6 12 -4 6 4 -4 7 -16
10 -27 8 -18 -5 -19 -2 -13 44 6 45 4 52 -25 89 -20 25 -38 39 -47 36 -8 -3
-11 -2 -8 3 10 18 -18 61 -44 67 -47 10 -51 13 -72 49 -20 33 -39 46 -39 25 0
-5 -7 -7 -15 -4 -8 4 -15 2 -15 -4 0 -5 -7 -12 -15 -16 -11 -4 -20 6 -31 34
-14 34 -20 39 -39 34 -22 -5 -23 -4 -15 32 5 21 19 45 31 55 39 29 6 95 -71
138 l-42 23 7 -22 c5 -15 4 -20 -4 -16 -6 4 -11 15 -11 26 0 21 -22 32 -47 24
-13 -4 -10 1 7 17 18 16 20 20 7 16 -10 -4 -28 -2 -40 5 -12 7 -31 13 -42 15
-11 2 -31 5 -45 8 -23 5 -21 2 15 -33 22 -21 63 -65 90 -97 28 -32 61 -70 74
-84 18 -18 25 -39 28 -76 3 -40 1 -45 -7 -27 -5 12 -16 25 -25 28 -8 3 -12 10
-9 15 8 13 -10 11 -24 -3 -16 -16 -16 15 -1 45 9 16 9 22 -1 25 -8 3 -24 15
-37 28 -18 18 -23 20 -23 7 0 -11 -6 -8 -21 11 -11 14 -30 31 -41 37 -18 10
-20 9 -16 -8 4 -16 1 -18 -26 -15 -17 3 -40 11 -51 18 -11 8 -27 14 -37 14
-10 0 -18 5 -18 10 0 6 -9 10 -20 10 -11 0 -20 -7 -20 -15 0 -12 -13 -15 -55
-15 -52 0 -73 -14 -40 -26 11 -5 12 -9 2 -19 -10 -11 -16 -10 -34 7 -21 20
-21 20 -32 0 -6 -11 -7 -22 -4 -26 3 -3 1 -6 -5 -6 -15 0 -16 26 -2 35 16 10
11 25 -9 25 -10 0 -24 6 -30 14 -10 11 -7 17 11 30 l22 16 -22 0 c-12 0 -22
-4 -22 -9 0 -5 -16 -8 -35 -8 -22 1 -35 6 -35 15 0 7 4 10 10 7 10 -6 76 21
85 35 7 11 -27 8 -54 -6 -33 -17 -42 -7 -14 16 27 22 20 32 -14 19 -31 -11
-28 -13 -41 33 -10 36 -9 37 19 43 16 4 29 11 29 17 0 6 -8 7 -17 3 -10 -4
-25 -8 -33 -9 -18 -3 -25 -30 -15 -54 4 -9 9 -33 12 -52 2 -19 8 -48 13 -64 5
-15 7 -32 5 -36 -11 -18 17 -21 41 -5 32 21 44 12 44 -31 0 -33 -14 -46 -23
-21 -3 8 -11 5 -26 -10 -12 -13 -25 -23 -29 -23 -4 0 -15 -13 -24 -29 -15 -27
-15 -35 -2 -77 20 -68 18 -72 -21 -34 -32 31 -42 30 -36 -4 1 -5 -1 -16 -4
-24 -4 -12 -9 -9 -21 13 -10 19 -12 31 -5 33 6 2 9 8 5 13 -3 5 1 9 9 9 16 0
57 62 57 84 0 9 -9 12 -27 8 -25 -5 -27 -4 -14 11 7 10 22 17 32 17 10 0 21 5
24 10 4 6 -8 10 -28 10 -36 0 -64 -21 -52 -40 9 -15 -2 -12 -30 6 -34 22 -34
57 -1 48 13 -3 27 -1 30 4 3 6 25 8 49 4 39 -5 41 -4 28 12 -10 12 -25 17 -48
14 -20 -2 -34 1 -37 9 -8 21 -26 15 -62 -21 -38 -38 -44 -66 -14 -66 11 0 20
-7 20 -15 0 -8 -3 -14 -7 -14 -19 3 -47 -3 -35 -8 17 -7 16 -53 -2 -53 -7 0
-16 14 -20 31 -5 27 -7 29 -21 16 -8 -9 -15 -23 -15 -31 0 -9 -8 -24 -18 -34
-16 -16 -22 -17 -37 -5 -21 14 -13 29 19 35 11 1 21 10 23 18 4 13 3 13 -6 0
-5 -8 -13 -11 -17 -7 -9 9 15 37 32 37 8 0 19 12 24 26 13 33 13 37 -2 28 -18
-12 -70 -15 -63 -5 14 23 -15 18 -29 -5 -12 -17 -23 -23 -36 -19 -13 4 -24 -2
-36 -20 -12 -18 -25 -25 -50 -25 -18 0 -36 5 -40 11 -9 15 23 34 56 34 14 0
26 5 27 10 1 6 -5 9 -12 9 -8 -1 -12 3 -8 9 4 7 0 8 -11 4 -10 -4 -22 -7 -27
-7 -6 0 -7 -4 -4 -10 3 -5 0 -10 -8 -10 -8 0 -17 9 -20 20 -5 21 -27 28 -27 9
0 -8 -5 -8 -15 1 -18 15 -20 35 -3 24 6 -4 32 -9 57 -11 35 -3 43 -1 34 8 -6
6 -26 13 -44 15 -18 2 -36 9 -40 15 -5 8 -8 8 -13 0 -4 -6 -18 -11 -32 -11
-14 0 -23 4 -20 9 3 4 -6 6 -19 3 -30 -5 -33 -22 -5 -22 11 0 20 -4 20 -9 0
-12 -49 -20 -52 -9 -2 5 -13 10 -26 11 -27 2 -27 5 -4 30 16 19 16 20 -5 8
-18 -9 -23 -9 -23 0 0 7 -3 9 -7 6 -3 -4 -12 -2 -19 3 -17 15 -38 8 -45 -15
-5 -21 -32 -24 -76 -10 -16 5 -24 1 -33 -15 -18 -33 0 -43 43 -25 53 22 114
20 127 -4 5 -11 10 -29 10 -40 0 -12 4 -21 10 -21 5 0 7 6 4 14 -8 21 17 32
31 13 10 -14 16 -12 50 23 34 35 41 38 53 26 8 -8 16 -31 19 -53 4 -38 4 -38
-31 -38 -20 0 -36 3 -36 8 0 4 7 7 15 7 20 0 19 16 -2 24 -11 5 -25 -4 -45
-29 -26 -31 -59 -50 -43 -25 3 6 2 10 -4 10 -5 0 -11 -3 -13 -7 -6 -14 -83
-48 -100 -45 -10 2 -21 16 -25 30 -3 15 -11 30 -16 33 -14 9 -71 0 -95 -15
-10 -6 -11 -1 -6 18 5 23 3 26 -18 26 -17 0 -24 6 -24 19 0 11 3 18 7 15 4 -2
12 3 19 12 10 11 10 18 2 26 -16 16 -54 -19 -47 -42 4 -14 1 -16 -20 -12 -15
2 -23 9 -20 16 3 6 8 18 11 27 6 19 74 59 98 59 9 0 16 6 16 13 0 23 -57 13
-85 -15 -15 -16 -32 -28 -36 -28 -5 0 -12 0 -16 0 -5 1 -7 10 -5 21 3 17 0 19
-25 13 -27 -7 -27 -7 -12 17 9 13 23 24 30 24 8 0 31 8 52 18 33 14 37 20 31
39 -3 13 -8 24 -9 26 -3 4 -47 -16 -67 -30 -14 -10 -20 -9 -35 4 -21 19 -37
11 -66 -34 -24 -38 -41 -35 -22 3 18 33 102 92 122 85 7 -3 26 0 43 5 37 13
80 4 80 -17 0 -12 8 -14 38 -8 37 7 37 7 18 -14 -14 -16 -25 -20 -49 -15 -26
5 -29 4 -24 -11 4 -10 7 -20 7 -22 0 -15 48 1 74 24 35 31 36 29 -29 77 -17
13 -18 16 -5 25 13 8 13 10 -2 10 -10 0 -18 -4 -18 -10 0 -5 -7 -7 -15 -4 -8
4 -15 15 -15 25 0 10 -4 19 -10 19 -6 0 -6 -9 0 -26 6 -14 10 -27 10 -30 0
-10 -25 -3 -41 12 -19 17 -39 11 -39 -12 0 -16 -18 -18 -39 -5 -11 7 -10 11 5
20 18 10 17 10 -4 11 -13 0 -34 -11 -47 -24 -20 -20 -33 -24 -65 -21 -38 4
-70 -12 -70 -36 0 -5 -5 -9 -10 -9 -6 0 -4 13 5 30 24 47 128 105 138 76 3 -8
8 -7 20 2 9 8 31 13 49 11 55 -3 68 0 62 16 -4 8 -18 15 -34 15 -16 0 -30 7
-34 15 -3 8 -11 15 -17 15 -7 0 -9 -3 -6 -6 7 -8 -36 -44 -52 -44 -6 0 -8 6
-5 13 4 10 -3 12 -26 9 -21 -3 -35 -13 -46 -33 -17 -33 -15 -33 -49 -17 -19 9
-28 9 -37 0 -17 -17 -28 -15 -28 6 -1 16 -2 16 -14 -1 -9 -12 -16 -14 -21 -8
-3 6 -15 11 -27 11 -13 0 -18 5 -15 13 4 10 -4 14 -24 14 -16 0 -29 -4 -29 -9
0 -5 -5 -6 -10 -3 -6 3 -13 -1 -16 -9 -9 -22 -30 -20 -48 5 -10 15 -20 19 -36
14 -17 -5 -21 -4 -18 6 3 8 14 13 24 11 16 -2 17 -1 4 7 -23 16 -26 14 -49
-24 -23 -40 -41 -45 -41 -12 0 16 24 47 75 96 67 65 103 84 89 46 -3 -7 4 -18
15 -25 16 -8 20 -17 15 -36 -6 -23 -5 -25 12 -16 11 6 28 20 39 32 11 13 35
29 53 37 28 11 32 17 22 28 -7 9 -29 15 -51 15 -29 0 -39 -5 -44 -21 -4 -11
-9 -18 -12 -15 -3 3 2 17 11 30 21 33 20 39 -4 24 -26 -16 -50 3 -32 25 9 11
7 18 -9 33 -14 12 -22 15 -27 7 -5 -8 -14 -7 -32 2 -29 16 -29 16 28 20 70 5
95 39 45 62 -21 10 -28 10 -35 0 -4 -6 -8 -7 -8 -2 0 6 5 16 12 23 9 9 9 12
-1 12 -8 0 -19 -7 -25 -16 -14 -18 -50 -8 -42 12 3 8 -1 14 -8 14 -8 0 -16 4
-18 8 -1 5 -17 12 -35 15 -26 5 -31 3 -26 -8z m2056 -752 c23 -33 47 -85 47
-99 0 -3 -10 2 -22 10 -12 9 -32 16 -45 16 -12 0 -25 5 -28 10 -12 19 -26 10
-20 -12 l7 -23 -17 23 c-18 25 -40 30 -31 7 4 -11 -1 -15 -19 -15 -14 0 -25 5
-25 10 0 6 -5 10 -11 10 -8 0 -9 -14 -5 -43 5 -33 3 -47 -9 -57 -10 -9 -15 -9
-15 -1 0 7 -9 9 -24 5 -18 -4 -29 2 -49 25 -25 31 -60 41 -72 21 -9 -15 -25
-12 -25 5 0 8 5 15 10 15 6 0 10 6 10 13 0 7 13 26 29 41 24 23 35 27 58 22
15 -4 37 -16 48 -26 24 -22 35 -16 79 43 24 31 34 37 66 37 32 0 41 -5 63 -37z
m-749 -125 c3 -13 7 -36 10 -53 2 -16 8 -41 12 -55 l8 -25 -28 19 c-27 17 -50
17 -90 1 -15 -7 -18 -5 -14 6 24 57 23 56 4 36 -10 -10 -25 -16 -33 -13 -8 3
-24 6 -35 6 -14 0 -18 5 -14 15 5 14 4 14 -16 0 -41 -28 -42 -15 -3 25 44 45
59 49 75 20 13 -24 52 -26 70 -5 11 13 15 13 21 3 6 -9 9 -4 9 15 0 33 18 36
24 5z m-435 -220 c6 -24 12 -75 14 -115 1 -39 5 -69 9 -67 5 3 8 11 8 18 0 8
7 19 15 26 36 30 4 -31 -43 -82 -72 -79 -90 2 -45 199 9 40 20 70 23 68 4 -3
12 -24 19 -47z m153 -83 c6 -22 10 -48 9 -59 -2 -11 2 -17 11 -14 7 3 13 9 13
14 1 5 5 20 9 33 6 18 10 21 17 10 7 -11 13 -9 30 11 16 19 14 12 -7 -25 -60
-109 -133 -193 -155 -179 -19 11 -9 97 28 223 17 59 24 56 45 -14z"/>
<path d="M1198 3354 c4 -20 9 -23 26 -18 19 6 19 5 7 -10 -13 -15 -16 -15 -36
4 l-22 21 -6 -22 c-5 -17 -11 -20 -28 -16 -35 9 -48 -8 -39 -50 5 -19 6 -41 3
-49 -4 -10 2 -11 29 -4 18 5 49 11 68 13 19 3 42 8 51 11 9 4 21 0 29 -8 11
-14 15 -14 37 4 28 22 58 26 69 9 3 -6 0 -15 -7 -20 -20 -13 -1 -11 23 2 15 8
19 8 14 0 -9 -13 15 -39 30 -34 7 2 19 -3 28 -12 10 -10 16 -12 16 -5 0 15 69
4 85 -12 7 -7 -2 -8 -29 -3 -36 6 -38 5 -27 -9 8 -9 21 -16 30 -17 12 0 11 -2
-4 -9 -18 -7 -19 -8 -2 -15 9 -4 24 -2 31 4 10 9 16 9 21 1 4 -6 14 -9 22 -6
8 3 22 -1 30 -10 14 -13 14 -17 2 -25 -8 -5 -17 -9 -21 -9 -5 0 -8 -5 -8 -11
0 -6 9 -8 20 -4 12 4 20 2 20 -5 0 -6 -4 -9 -9 -6 -4 3 -17 -4 -27 -15 -27
-30 -55 -44 -48 -24 4 9 1 15 -8 15 -18 0 -58 -28 -58 -42 0 -6 6 -6 16 2 12
11 18 11 31 -2 14 -15 13 -17 -6 -27 -12 -7 -27 -9 -34 -5 -9 5 -9 4 -1 -5 8
-9 22 -9 60 1 27 7 52 17 55 21 4 5 17 6 29 2 21 -7 22 -6 3 12 -15 16 -21 17
-43 6 -33 -17 -37 -8 -9 22 28 29 99 36 99 9 0 -8 5 -12 10 -9 6 3 17 -1 26
-10 15 -15 18 -15 34 0 11 10 31 15 47 14 16 -2 40 5 53 14 l25 18 -42 -7
c-36 -6 -43 -4 -43 10 0 10 -4 15 -9 11 -5 -3 -12 -1 -15 4 -5 7 14 21 34 25
3 1 11 5 18 10 8 5 18 4 25 -3 14 -14 27 -14 27 -1 0 6 -7 10 -16 10 -8 0 -12
5 -9 10 3 6 4 10 1 10 -11 0 -62 -25 -84 -41 l-23 -18 22 -12 22 -11 -23 -13
c-32 -17 -56 -9 -38 13 11 13 10 15 -9 10 -18 -5 -22 -2 -20 16 1 16 -3 21
-20 20 -12 0 -20 3 -17 8 3 4 -2 8 -10 8 -8 0 -20 9 -26 20 -12 22 -1 27 17 9
8 -8 21 -8 50 2 43 15 47 16 68 18 8 0 15 5 15 10 0 13 -57 8 -72 -7 -14 -14
-58 -16 -58 -2 0 6 5 10 10 10 6 0 10 4 10 8 0 13 -50 33 -63 25 -7 -4 -6 1 2
10 15 19 1 23 -17 5 -19 -19 -14 1 8 32 l20 28 -29 -3 c-15 -1 -33 -5 -40 -10
-10 -6 -11 -2 -6 16 6 20 5 22 -6 12 -7 -7 -19 -13 -27 -13 -9 0 -5 7 9 19 22
18 25 18 42 3 14 -12 20 -13 30 -3 9 10 8 11 -5 6 -12 -5 -18 -2 -18 8 0 8 -7
17 -15 21 -8 3 -15 2 -15 -2 0 -14 -64 -44 -68 -32 -3 8 -8 8 -18 -1 -12 -10
-13 -9 -7 6 7 19 7 19 -44 -2 -7 -3 -13 1 -13 8 0 7 -3 10 -6 7 -9 -9 16 -49
26 -43 5 3 11 1 15 -5 9 -14 -21 -12 -37 3 -29 27 -67 40 -81 29 -8 -7 -27
-13 -43 -14 -16 -1 -32 -6 -35 -11 -4 -5 -17 -3 -29 5 -17 10 -24 10 -27 1 -3
-8 -15 -10 -35 -6 -22 4 -29 3 -24 -5 4 -7 1 -12 -9 -12 -29 0 -12 34 27 55
32 17 39 18 65 6 15 -8 38 -14 51 -14 54 2 54 1 40 26 -11 20 -12 20 -16 3 -3
-16 -7 -15 -31 10 -15 16 -36 34 -48 41 -18 10 -19 9 -15 -13z"/>
<path d="M2685 857 c-10 -35 -13 -75 -5 -87 6 -10 0 -22 -23 -42 l-32 -27 83
25 c66 21 86 23 98 13 12 -10 13 -9 8 5 -4 10 -1 16 9 16 8 0 18 7 21 16 9 24
7 34 -6 34 -19 0 -99 41 -94 48 2 4 -9 8 -25 9 -17 1 -32 -3 -34 -10z"/>
</g>
</svg>
