<?xml version="1.0" standalone="no"?>
<!DOCTYPE svg PUBLIC "-//W3C//DTD SVG 20010904//EN"
 "http://www.w3.org/TR/2001/REC-SVG-20010904/DTD/svg10.dtd">
<svg version="1.0" xmlns="http://www.w3.org/2000/svg"
 width="362.000000pt" height="481.000000pt" viewBox="0 0 362.000000 481.000000"
 preserveAspectRatio="xMidYMid meet">

<g transform="translate(0.000000,481.000000) scale(0.100000,-0.100000)"
fill="#000000" stroke="none">
<path d="M0 3916 c0 -889 0 -894 20 -889 11 3 20 1 20 -5 0 -5 -9 -12 -20 -15
-20 -5 -20 -14 -20 -1506 l0 -1501 1810 0 1810 0 0 1069 c0 703 -3 1072 -10
1076 -5 3 -10 16 -10 28 0 18 2 19 10 7 6 -10 10 450 10 1308 l0 1322 -1810 0
-1810 0 0 -894z m2110 421 c0 -6 3 -7 6 -4 9 9 90 -51 109 -80 9 -13 13 -28
10 -33 -3 -6 5 -10 19 -10 25 0 30 -9 29 -47 -1 -7 4 -13 11 -13 6 0 25 -7 41
-16 17 -9 39 -18 50 -20 11 -2 21 -8 23 -12 1 -5 21 -7 42 -5 30 3 40 0 40
-10 0 -8 10 -15 23 -15 12 0 36 -6 52 -13 17 -7 35 -13 41 -14 6 0 19 -7 28
-15 12 -9 49 -14 119 -16 110 -2 140 -10 191 -49 20 -15 40 -23 49 -19 19 7
82 -50 72 -66 -3 -6 -18 -7 -33 -4 -27 6 -27 6 7 -25 18 -18 31 -34 29 -36 -6
-7 -78 7 -74 14 2 3 -13 14 -33 23 l-36 18 45 -41 c25 -23 55 -45 68 -50 19
-7 21 -12 12 -28 -9 -17 -14 -18 -40 -9 -17 5 -30 14 -30 19 0 5 -5 9 -12 9
-6 0 -26 11 -45 26 -19 14 -33 20 -33 13 0 -7 -8 -5 -19 7 -10 10 -16 26 -14
34 4 12 3 12 -5 1 -7 -9 -19 -11 -42 -6 -40 9 -33 -8 12 -31 24 -13 28 -18 17
-25 -9 -6 -4 -7 16 -3 17 4 32 7 35 7 11 2 57 -28 85 -55 16 -16 40 -31 52
-34 16 -4 23 -14 23 -30 0 -13 -6 -24 -12 -24 -21 0 -76 37 -88 59 -6 12 -15
21 -21 21 -6 0 -7 -6 -3 -12 6 -10 4 -10 -7 0 -16 14 -63 17 -54 2 3 -5 13
-10 22 -10 22 0 74 -40 67 -51 -8 -13 36 -48 61 -49 11 -1 34 -18 50 -39 17
-21 35 -37 40 -35 6 2 17 -1 25 -6 13 -9 13 -11 0 -21 -13 -9 -13 -10 1 -6 9
3 25 0 35 -8 11 -7 42 -25 69 -40 28 -16 62 -38 77 -51 15 -12 32 -24 38 -26
14 -4 39 -107 28 -114 -5 -3 -6 -15 -2 -27 7 -22 6 -22 -14 -3 -12 10 -20 22
-17 25 2 4 -5 8 -16 8 -18 2 -19 0 -7 -14 11 -14 10 -15 -10 -9 -12 3 -31 9
-42 12 -11 3 -20 1 -20 -5 0 -6 7 -11 16 -11 9 0 23 -8 30 -17 10 -15 15 -16
25 -5 19 18 36 15 44 -10 4 -14 8 -18 12 -10 2 6 12 12 21 12 11 0 13 -3 6 -8
-15 -10 -25 -42 -13 -42 6 0 7 -5 3 -12 -6 -9 -9 -9 -11 -1 -3 7 -11 9 -19 6
-8 -3 -14 0 -14 6 0 6 5 11 11 11 5 0 8 4 5 8 -4 7 -31 8 -55 3 -2 -1 3 -9 10
-18 8 -10 -4 -5 -26 12 -22 16 -41 33 -43 37 -6 14 -24 9 -19 -5 4 -10 -5 -13
-34 -13 -21 1 -39 -2 -39 -6 0 -8 27 -11 73 -8 20 1 40 -9 67 -34 40 -36 60
-45 60 -26 0 6 5 10 11 10 8 0 8 -5 -1 -15 -9 -10 -9 -15 -1 -15 6 0 20 -9 31
-20 11 -11 26 -20 33 -20 6 1 2 9 -10 19 -13 11 -23 30 -23 43 0 20 2 19 16
-9 9 -18 20 -33 25 -33 5 0 9 -6 9 -14 0 -28 -29 -24 -77 10 -50 36 -74 44
-53 19 7 -8 19 -15 26 -15 8 0 14 -5 14 -11 0 -5 -5 -7 -12 -3 -7 4 -8 3 -4
-5 4 -6 12 -9 17 -6 5 4 9 2 9 -3 0 -5 13 -12 30 -15 23 -5 28 -11 24 -24 -5
-15 -4 -15 5 -3 13 19 20 11 25 -31 2 -22 -2 -38 -12 -45 -12 -9 -12 -13 -2
-19 9 -6 11 -4 5 5 -5 8 -4 11 3 6 6 -4 9 -13 5 -21 -3 -9 1 -15 11 -15 9 0
16 -7 16 -16 0 -9 -5 -12 -12 -8 -8 5 -8 1 1 -10 13 -15 13 -19 0 -27 -9 -5
-10 -9 -2 -9 6 0 15 5 18 10 10 16 23 3 23 -24 0 -18 -5 -23 -17 -20 -9 3 -6
-1 7 -7 18 -10 22 -20 20 -43 -2 -19 1 -30 8 -29 7 1 16 -10 22 -25 33 -95 41
-162 18 -162 -17 0 -48 39 -40 52 3 4 -2 8 -11 8 -18 0 -15 24 3 26 7 1 17 2
22 3 6 0 1 10 -10 21 -12 12 -25 18 -30 15 -5 -3 -11 -1 -14 4 -3 5 -14 7 -24
4 -10 -2 -24 3 -31 11 -11 13 -10 19 7 33 11 10 23 36 26 59 5 35 2 44 -17 60
-12 10 -16 12 -9 4 23 -27 15 -40 -15 -24 -16 7 -41 14 -57 14 -24 0 -27 -2
-16 -15 12 -14 7 -19 -14 -16 -17 3 -46 -11 -46 -23 0 -6 9 -29 20 -51 23 -45
28 -91 7 -64 -16 20 -47 32 -47 17 0 -7 -5 -6 -15 2 -12 10 -16 9 -21 -4 -10
-26 -21 -18 -28 19 -5 25 -14 39 -31 45 -17 7 -22 14 -18 30 3 11 9 22 13 25
12 7 50 -34 50 -55 0 -26 19 -35 27 -13 4 10 11 22 17 26 6 5 0 5 -13 2 -19
-6 -23 -4 -18 8 3 8 0 20 -6 26 -9 9 -8 11 3 7 10 -4 25 8 43 33 33 48 34 60
2 54 -18 -4 -31 2 -49 23 -28 31 -37 15 -12 -21 15 -23 27 -77 15 -69 -5 3 -9
11 -9 19 0 14 -62 85 -74 85 -4 0 -23 12 -42 26 -19 15 -34 23 -34 18 0 -4 -5
-3 -12 4 -7 7 -21 12 -32 12 -14 0 -17 3 -10 10 8 8 19 7 38 -1 29 -13 46 -5
28 13 -6 6 -32 11 -57 9 -25 -1 -45 2 -45 6 0 5 -24 14 -52 21 -29 7 -63 15
-75 18 -14 4 -23 2 -23 -5 0 -6 7 -11 16 -11 18 0 114 -77 114 -91 0 -11 -31
1 -48 18 -7 7 -19 13 -25 13 -20 -1 36 -40 66 -46 38 -9 145 -131 153 -175 l5
-34 -21 25 c-13 14 -29 24 -36 22 -16 -3 -19 24 -4 33 17 11 11 22 -19 35 -16
6 -35 25 -41 41 -13 30 -34 42 -23 12 5 -12 -2 -10 -28 8 -19 13 -38 30 -42
37 -4 6 -17 12 -27 12 -27 0 -34 18 -15 40 16 18 15 19 -12 22 -17 2 -27 8
-25 17 2 10 -5 12 -27 8 -30 -6 -51 6 -31 18 5 3 10 10 10 14 0 10 -51 1 -68
-12 -9 -7 -19 -4 -33 9 -12 11 -23 18 -25 17 -6 -4 -6 5 -1 20 2 8 11 6 31 -7
27 -17 28 -17 52 5 20 18 26 20 39 9 20 -17 100 -26 90 -10 -3 6 -12 10 -18 8
-7 -1 -29 3 -49 9 -21 6 -50 10 -65 8 -15 -1 -35 2 -45 9 -14 8 -20 8 -26 -1
-6 -9 -17 -10 -39 -4 -17 5 -34 7 -36 4 -11 -10 -103 -11 -115 0 -9 7 -16 7
-24 -1 -7 -7 -20 -12 -29 -12 -21 0 -35 -36 -21 -53 5 -7 11 -26 14 -44 4 -32
4 -32 -36 -28 -22 2 -46 -1 -53 -7 -8 -6 -16 -9 -19 -6 -10 11 49 40 72 35 13
-2 24 0 24 4 0 8 -9 10 -65 13 -16 1 -20 7 -18 30 2 28 2 28 -18 10 -13 -12
-16 -21 -9 -28 16 -16 12 -36 -8 -36 -10 0 -22 -3 -25 -6 -13 -13 -87 -14 -87
-1 -1 6 -9 2 -20 -11 -20 -24 -40 -22 -40 5 0 9 6 13 15 10 8 -4 17 -1 21 4 3
6 17 8 29 5 13 -3 26 -2 30 3 3 5 -3 11 -12 13 -15 3 -14 5 5 10 14 4 20 2 15
-5 -4 -7 0 -8 11 -4 10 4 22 7 27 7 5 0 9 4 9 9 0 4 -17 11 -37 15 -28 4 -41
2 -49 -9 -6 -8 -14 -12 -17 -8 -4 3 -7 1 -7 -5 0 -7 -6 -12 -12 -12 -7 -1 -26
-12 -43 -25 -28 -23 -28 -25 -8 -25 24 0 39 -15 24 -24 -5 -4 -11 -2 -13 3 -1
4 -14 12 -27 16 -20 6 -23 5 -17 -10 5 -15 4 -16 -9 -5 -21 17 -19 25 11 39
15 6 24 14 21 18 -4 3 -12 1 -19 -4 -16 -13 -76 -15 -83 -2 -4 5 2 6 11 2 11
-4 15 -3 10 5 -8 13 67 55 79 44 3 -4 11 1 16 11 11 20 40 22 57 5 9 -9 16 -8
30 5 11 10 27 17 38 16 10 -1 37 -1 59 0 30 2 35 4 21 10 -12 5 -15 10 -9 14
6 4 16 0 23 -8 19 -22 29 -18 24 10 -5 28 12 33 49 14 16 -9 22 -9 25 1 3 8
15 24 27 36 20 20 30 22 78 17 35 -4 57 -2 61 6 4 6 12 11 19 11 6 0 2 -6 -9
-14 -21 -16 -23 -16 48 -17 15 -1 26 -6 25 -13 -1 -6 4 -11 11 -10 6 1 21 2
33 3 26 1 15 21 -12 21 -34 0 -11 19 24 19 17 1 40 2 50 2 9 0 17 4 17 10 0
13 24 11 56 -6 35 -18 71 -19 103 -1 l23 13 -23 6 c-13 4 -25 2 -27 -3 -2 -6
-15 -10 -29 -10 -21 0 -24 2 -13 15 10 13 9 15 -12 15 -13 0 -29 5 -36 12 -9
9 -12 8 -12 -5 0 -16 -2 -16 -21 1 -12 12 -29 18 -42 15 -20 -4 -20 -3 3 11
l25 15 -32 1 c-17 0 -35 5 -38 10 -3 6 -16 10 -28 11 l-22 0 23 11 c13 6 21
17 18 24 -3 8 0 11 10 7 7 -3 14 -16 14 -30 0 -22 3 -24 24 -19 18 4 28 0 40
-19 13 -19 21 -23 34 -17 9 5 23 7 30 5 6 -3 12 0 12 6 0 6 -5 10 -12 8 -7 -1
-12 3 -13 8 -2 21 -29 53 -42 48 -7 -3 -13 0 -13 7 0 8 15 10 52 6 44 -5 54
-3 71 15 12 13 14 19 6 18 -8 -2 -32 5 -53 14 -41 18 -58 15 -38 -5 18 -18 14
-26 -10 -21 -13 2 -34 0 -47 -5 l-24 -9 23 -21 c13 -12 32 -22 41 -22 10 0 20
-4 23 -9 3 -5 -6 -8 -19 -8 -14 0 -25 4 -25 9 0 6 -11 7 -26 4 -21 -6 -25 -4
-21 8 4 9 2 18 -4 22 -6 3 -8 12 -5 19 3 8 0 16 -7 19 -7 3 2 3 18 1 23 -4 33
-1 43 15 13 21 9 40 -10 40 -5 0 -8 -7 -4 -15 3 -8 1 -15 -4 -15 -6 0 -10 7
-10 15 0 9 -6 12 -15 9 -8 -4 -15 -1 -15 5 0 6 5 11 11 11 8 0 8 4 0 14 -6 7
-22 11 -36 8 -16 -3 -25 0 -25 8 0 7 7 10 15 6 9 -3 15 0 15 9 0 8 -19 23 -41
33 -26 12 -36 21 -28 24 18 7 -16 42 -52 53 -22 7 -23 7 -9 -10 14 -17 14 -17
-7 -4 -14 8 -18 16 -11 20 7 4 4 10 -8 17 -21 11 -25 12 -51 12 -15 0 -16 2
-3 10 13 9 13 11 0 20 -8 5 -20 8 -27 5 -7 -2 -15 0 -18 6 -4 5 -11 7 -16 3
-5 -3 -7 -10 -4 -15 3 -5 -2 -6 -11 -2 -12 4 -15 3 -10 -5 5 -8 0 -12 -13 -12
-11 0 -26 -7 -35 -15 -8 -8 -19 -15 -24 -15 -6 0 -13 -7 -16 -15 -3 -9 -14
-15 -23 -13 -12 2 -18 -4 -18 -17 -1 -25 -28 -22 -56 6 -11 11 -24 17 -29 14
-5 -3 -7 0 -5 8 8 18 -27 48 -60 52 -27 2 -101 65 -78 65 7 0 17 -9 23 -20 6
-11 18 -20 26 -20 8 0 12 5 9 10 -3 6 -1 10 4 10 6 0 11 -6 11 -14 0 -8 9 -17
20 -21 10 -3 30 -19 43 -34 22 -27 57 -51 73 -51 3 0 1 7 -6 15 -7 8 -8 15 -2
15 5 0 10 11 10 25 0 27 -5 30 -28 15 -13 -9 -13 -11 0 -20 12 -8 13 -10 1
-10 -22 0 -50 30 -44 46 4 12 0 14 -20 9 -15 -4 -28 -2 -33 6 -5 9 -2 10 9 6
10 -3 17 -2 17 3 0 5 9 12 21 15 34 11 16 15 -20 5 -31 -8 -36 -6 -64 23 -27
29 -29 30 -22 8 5 -17 4 -21 -5 -16 -6 4 -9 17 -6 30 9 34 -6 39 -21 8 -7 -16
-11 -20 -8 -10 5 20 -31 25 -38 5 -6 -20 4 -48 16 -41 6 4 7 1 2 -7 -6 -10
-14 -6 -32 16 -12 16 -23 32 -23 37 0 12 18 8 23 -5 4 -8 6 -7 6 4 1 22 -21
28 -35 10 -12 -17 -50 -9 -39 8 3 5 -6 12 -20 16 -13 3 -22 10 -19 15 3 5 -2
9 -10 9 -9 0 -16 -4 -16 -9 0 -14 75 -71 93 -71 9 0 19 -4 22 -10 4 -6 -1 -7
-11 -3 -12 4 -15 3 -10 -5 4 -7 3 -12 -2 -12 -6 0 -12 7 -16 15 -3 8 -12 12
-21 9 -11 -5 -14 -2 -8 12 4 12 3 15 -5 10 -7 -4 -12 -2 -12 4 0 8 -6 7 -21
-1 -17 -9 -23 -8 -30 2 -5 8 -7 19 -4 26 2 7 -2 10 -10 6 -12 -4 -12 -9 -3
-26 10 -20 10 -21 -5 -8 -15 12 -17 11 -17 -2 0 -9 8 -21 18 -26 15 -9 14 -10
-7 -11 -13 0 -21 3 -18 6 3 4 2 15 -3 25 -7 12 -7 20 0 24 25 15 6 22 -25 9
-19 -8 -35 -11 -35 -7 0 3 -3 4 -6 0 -3 -3 6 -23 21 -44 15 -21 18 -27 6 -14
-11 13 -21 19 -22 15 0 -5 -4 2 -10 14 -12 32 -7 37 48 52 27 7 69 19 96 27
26 9 56 13 67 10 10 -3 20 -1 22 4 7 20 153 5 238 -25 25 -9 53 -16 63 -16 22
0 63 -25 99 -60 27 -27 27 -27 8 -48 -11 -12 -20 -28 -20 -37 0 -13 4 -14 21
-5 11 7 18 18 15 25 -4 11 2 13 27 9 31 -5 31 -5 12 11 -11 9 -19 21 -17 26 8
30 -22 90 -65 131 -27 25 -59 57 -72 72 -13 14 -29 26 -37 26 -19 0 -51 19
-81 48 -14 14 -30 21 -41 18 -9 -3 -30 1 -45 9 -28 14 -95 31 -110 27 -4 -1
-18 3 -30 10 -12 7 -33 13 -47 15 -78 7 -102 12 -123 26 -13 8 -41 21 -63 27
-22 7 -51 21 -65 31 -13 11 -17 17 -9 14 9 -3 45 -7 80 -9 36 -3 79 -8 95 -12
l30 -7 -26 33 c-20 26 -38 37 -78 46 -29 6 -58 17 -64 23 -17 17 -37 14 -30
-5 5 -14 3 -15 -15 -5 -24 13 -37 30 -29 38 3 3 28 0 54 -6 26 -6 64 -13 83
-16 26 -3 45 -15 76 -49 32 -37 47 -46 73 -46 18 0 41 -5 51 -10 10 -6 34 -12
52 -14 18 -3 35 -5 38 -5 3 -1 -2 -6 -10 -12 -13 -9 -13 -10 2 -6 9 3 24 -3
33 -13 9 -10 24 -16 32 -13 12 5 9 10 -13 21 -16 8 -37 23 -46 33 -34 35 -87
71 -97 65 -5 -4 -12 -2 -16 4 -3 6 1 13 10 16 13 5 9 14 -20 50 -34 41 -35 44
-13 40 15 -2 22 -9 20 -21 -3 -13 1 -15 17 -10 10 3 22 1 26 -5 9 -14 21 -13
38 5 22 21 131 20 122 -2 -4 -13 33 -39 42 -29 3 3 -2 8 -11 12 -9 3 -14 10
-11 14 7 11 -32 53 -62 69 -21 11 -32 32 -15 30 4 -1 18 -1 31 0 20 1 22 3 10
17 -8 10 0 8 24 -6 20 -12 37 -27 37 -33z m-197 -10 c-3 -4 -6 -7 -7 -5 -1 2
-8 12 -16 22 -14 18 -14 18 7 6 12 -8 19 -18 16 -23z m104 -17 c6 0 14 -7 17
-16 11 -29 -50 18 -65 51 -7 13 -2 10 13 -7 13 -16 29 -28 35 -28z m-464 20
c9 -11 13 -20 7 -20 -5 0 -14 9 -20 20 -6 11 -9 20 -8 20 2 0 11 -9 21 -20z
m57 10 c24 -15 7 -19 -20 -5 -15 8 -19 14 -10 14 8 1 22 -3 30 -9z m98 -32
c36 -29 91 -88 82 -88 -5 0 -24 16 -41 35 -18 19 -51 44 -75 56 -24 11 -44 22
-44 24 0 7 63 -15 78 -27z m97 22 c4 -6 -6 -10 -22 -10 -22 0 -25 2 -13 10 19
12 27 12 35 0z m79 -15 c-4 -9 0 -15 9 -15 8 0 17 -7 21 -15 9 -24 -8 -17 -39
15 -27 29 -28 30 -7 30 15 0 20 -5 16 -15z m76 -15 c0 -5 -7 -7 -15 -4 -8 4
-15 8 -15 10 0 2 7 4 15 4 8 0 15 -4 15 -10z m-307 -27 c-7 -2 -19 -2 -25 0
-7 3 -2 5 12 5 14 0 19 -2 13 -5z m187 -63 c13 -8 13 -10 -2 -10 -9 0 -20 5
-23 10 -8 13 5 13 25 0z m-224 -37 c-6 -6 -36 9 -36 18 0 5 9 4 20 -3 10 -7
18 -14 16 -15z m64 -17 c0 -2 -9 -2 -20 1 -11 3 -20 9 -20 15 0 5 9 4 20 -2
11 -6 20 -12 20 -14z m262 -14 c9 -9 7 -12 -9 -12 -11 0 -26 6 -32 13 -8 11
-6 13 9 12 11 -1 26 -7 32 -13z m133 -172 c3 -5 -1 -10 -10 -10 -9 0 -13 5
-10 10 3 6 8 10 10 10 2 0 7 -4 10 -10z m-840 -109 c-4 -17 -11 -31 -16 -31
-14 0 -11 58 4 63 18 6 20 2 12 -32z m-495 -11 c0 -5 -7 -7 -15 -4 -8 4 -15 8
-15 10 0 2 7 4 15 4 8 0 15 -4 15 -10z m60 -55 c7 -8 8 -15 2 -15 -5 0 -15 7
-22 15 -7 8 -8 15 -2 15 5 0 15 -7 22 -15z m888 -65 c3 -9 -1 -11 -11 -7 -9 3
-19 2 -22 -3 -9 -14 5 -38 27 -43 11 -3 17 -10 13 -16 -11 -19 -24 -12 -41 20
-11 23 -21 30 -35 26 -10 -3 -17 -1 -13 4 3 5 10 9 15 9 6 0 17 7 26 15 17 18
34 16 41 -5z m65 -10 c3 -11 3 -20 1 -20 -2 0 -8 9 -14 20 -6 11 -7 20 -2 20
6 0 12 -9 15 -20z m92 -10 c3 -5 -1 -10 -9 -10 -9 0 -16 5 -16 10 0 6 4 10 9
10 6 0 13 -4 16 -10z m29 -5 c3 -8 1 -15 -4 -15 -6 0 -10 7 -10 15 0 8 2 15 4
15 2 0 6 -7 10 -15z m-237 -22 c-4 -3 -2 -12 4 -20 18 -21 4 -15 -16 7 -17 19
-17 20 0 20 10 0 15 -3 12 -7z m153 -8 c7 -9 8 -15 2 -15 -5 0 -12 7 -16 15
-3 8 -4 15 -2 15 2 0 9 -7 16 -15z m120 5 c0 -5 -2 -10 -4 -10 -3 0 -8 5 -11
10 -3 6 -1 10 4 10 6 0 11 -4 11 -10z m-1325 -10 c-3 -5 -12 -10 -18 -10 -7 0
-6 4 3 10 19 12 23 12 15 0z m55 -10 c0 -11 -7 -20 -16 -20 -8 0 -12 5 -8 11
3 6 0 15 -7 20 -10 6 -8 9 9 9 15 0 22 -6 22 -20z m935 9 c11 -17 -1 -21 -15
-4 -8 9 -8 15 -2 15 6 0 14 -5 17 -11z m478 -23 c6 5 5 0 -3 -11 -14 -16 -13
-17 5 -12 11 4 27 2 35 -4 11 -8 9 -9 -9 -4 -20 6 -23 4 -17 -10 5 -15 4 -16
-9 -5 -16 14 -18 10 -9 -14 3 -9 14 -16 23 -17 11 0 12 -2 3 -6 -7 -3 -23 3
-34 13 -21 19 -21 19 -14 0 5 -16 4 -17 -9 -6 -8 7 -15 17 -15 23 0 6 3 7 7 4
3 -4 12 -2 20 5 11 9 10 15 -9 36 l-23 25 23 -12 c12 -7 28 -9 35 -5z m-1183
-6 c0 -5 -5 -10 -11 -10 -5 0 -7 5 -4 10 3 6 8 10 11 10 2 0 4 -4 4 -10z m664
-2 c-3 -4 -9 -8 -15 -8 -5 0 -9 4 -9 8 0 5 7 9 15 9 8 0 12 -4 9 -9z m445 -22
c-3 -3 -11 5 -18 17 -13 21 -12 21 5 5 10 -10 16 -20 13 -22z m-471 1 c7 -8 6
-17 -3 -30 -8 -12 -15 -14 -20 -8 -3 6 -1 11 4 11 6 0 11 5 11 11 0 6 -9 8
-20 4 -21 -7 -28 10 -7 18 20 8 24 8 35 -6z m-653 -17 c3 -5 1 -10 -4 -10 -6
0 -11 5 -11 10 0 6 2 10 4 10 3 0 8 -4 11 -10z m111 -11 c7 -5 14 -19 17 -30
5 -19 4 -19 -11 -6 -9 8 -35 24 -57 36 l-40 22 40 -6 c22 -4 45 -11 51 -16z
m595 4 c13 -16 12 -17 -3 -4 -10 7 -18 15 -18 17 0 8 8 3 21 -13z m204 -1 c-3
-3 -11 0 -18 7 -9 10 -8 11 6 5 10 -3 15 -9 12 -12z m-951 -7 c-4 -8 -10 -15
-15 -15 -5 0 -9 7 -9 15 0 8 7 15 15 15 9 0 12 -6 9 -15z m1546 7 c0 -13 -12
-22 -22 -16 -10 6 -1 24 13 24 5 0 9 -4 9 -8z m-1475 -22 c-3 -5 -1 -11 4 -14
5 -4 12 -2 15 3 10 15 79 -29 103 -65 12 -19 18 -34 13 -34 -6 0 -15 9 -22 20
-7 11 -18 20 -25 20 -7 0 -10 7 -6 16 5 13 2 15 -17 9 -15 -5 -20 -4 -16 4 10
16 -21 26 -38 12 -10 -9 -15 -8 -20 4 -3 9 -10 13 -16 10 -5 -3 -10 -1 -10 4
0 6 7 11 16 11 9 0 12 5 8 12 -4 7 -3 8 5 4 6 -4 9 -11 6 -16z m1100 10 c3 -5
-1 -10 -9 -10 -9 0 -16 5 -16 10 0 6 4 10 9 10 6 0 13 -4 16 -10z m-1292 -7
c-7 -2 -19 -2 -25 0 -7 3 -2 5 12 5 14 0 19 -2 13 -5z m62 -3 c3 -5 -1 -10 -9
-10 -8 0 -18 5 -21 10 -3 6 1 10 9 10 8 0 18 -4 21 -10z m270 0 c3 -5 21 -11
38 -11 24 -1 26 -3 10 -6 -22 -4 -33 -23 -14 -23 5 0 13 -10 17 -22 4 -13 10
-25 13 -28 14 -11 50 -90 41 -90 -6 0 -10 6 -11 13 0 10 -2 10 -6 0 -8 -22
-26 -14 -20 8 8 31 -13 69 -37 69 -16 0 -18 2 -7 9 12 8 12 13 -3 35 -9 14
-20 26 -25 26 -5 0 -11 7 -15 15 -6 17 9 21 19 5z m158 3 c-7 -2 -19 -2 -25 0
-7 3 -2 5 12 5 14 0 19 -2 13 -5z m217 -11 c0 -10 -4 -22 -9 -27 -16 -17 0
-63 36 -102 19 -21 31 -32 27 -24 -5 11 -1 12 20 7 14 -3 35 -2 46 4 16 9 22
7 27 -7 9 -23 35 -43 47 -36 5 3 -2 12 -15 20 l-24 14 28 -5 c62 -13 81 -16
69 -10 -6 3 -10 10 -6 15 3 5 12 5 23 0 24 -14 59 -3 66 20 8 24 21 24 34 2
10 -20 41 -24 54 -8 6 6 10 6 14 -2 8 -21 25 -14 18 7 -7 23 10 27 22 5 7 -13
13 -13 36 -3 15 7 27 16 27 21 0 4 12 7 26 7 19 0 25 4 20 15 -4 13 -2 13 14
5 12 -7 21 -7 25 0 3 6 -1 13 -9 16 -9 3 -13 10 -11 15 3 4 21 -1 41 -11 38
-22 64 -26 64 -10 0 6 9 10 20 10 11 0 25 9 32 19 7 11 18 17 27 14 12 -5 13
-3 5 6 -9 10 -17 10 -33 1 -28 -15 -51 -2 -27 16 20 14 67 2 87 -23 15 -17 -2
-33 -37 -33 -11 0 -29 -7 -40 -16 -19 -15 -19 -15 2 -11 16 3 25 -2 33 -20 15
-33 14 -41 -3 -17 -8 10 -18 16 -22 12 -4 -4 -14 -2 -22 5 -13 10 -14 9 -10
-3 2 -8 13 -15 24 -15 12 0 19 -7 18 -18 -1 -9 -2 -26 -3 -37 0 -12 -12 -25
-26 -30 -14 -5 -25 -12 -25 -16 0 -3 7 -4 14 -1 14 6 26 -13 32 -53 2 -8 7
-16 11 -17 5 -2 7 -19 5 -38 -3 -29 -1 -35 14 -35 17 0 16 -1 -2 -15 -26 -20
-51 -20 -35 -1 16 19 -5 32 -24 16 -16 -13 -18 -10 -9 14 3 8 12 12 20 9 8 -3
14 0 14 7 0 9 -12 11 -42 6 -38 -5 -41 -4 -25 8 10 8 27 12 37 9 11 -3 20 0
20 6 0 6 -17 12 -37 12 -38 1 -38 1 -8 9 29 7 29 8 -10 10 l-40 2 30 13 30 13
-28 7 c-15 4 -47 4 -70 1 -34 -6 -40 -5 -29 6 8 8 33 12 63 11 30 -1 47 2 44
7 -4 6 -15 10 -26 10 -10 0 -19 5 -19 10 0 13 26 13 50 0 13 -7 19 -6 24 5 3
8 13 15 21 15 10 0 15 7 13 18 -2 11 -14 18 -38 20 -19 2 -38 9 -42 15 -5 8
-8 7 -8 -4 0 -21 21 -29 52 -22 22 5 22 5 6 -12 -14 -15 -21 -16 -49 -6 -43
15 -44 14 -46 -10 -2 -27 -8 -33 -25 -23 -7 5 -29 9 -49 9 l-36 1 21 -19 c16
-14 18 -20 7 -24 -9 -4 -5 -12 15 -29 16 -13 24 -23 18 -24 -6 0 -21 9 -34 20
-26 23 -49 27 -31 7 6 -8 7 -18 3 -22 -4 -5 -2 -6 3 -2 6 3 16 -6 23 -21 8
-17 8 -22 1 -15 -8 8 -20 9 -36 2 -17 -6 -30 -6 -39 2 -10 8 -14 8 -14 0 0
-12 43 -25 62 -18 7 2 21 0 30 -5 16 -8 16 -10 -2 -28 -22 -22 -35 -27 -24 -9
4 7 1 10 -7 7 -15 -6 -69 21 -69 34 0 4 -9 8 -20 8 -11 0 -20 5 -20 10 0 6 -6
10 -14 10 -8 0 -18 5 -22 12 -5 8 0 9 14 6 12 -4 22 -2 22 3 0 5 10 9 23 9 21
1 21 1 3 12 -13 7 -25 7 -35 1 -17 -10 -97 7 -86 19 3 3 -5 3 -18 1 -14 -3
-28 0 -31 6 -4 5 -13 8 -21 4 -21 -7 -19 7 3 23 16 13 16 13 -1 14 -10 0 -28
-7 -41 -15 -35 -23 -115 -24 -132 -1 -7 11 -11 23 -8 28 3 5 2 8 -3 7 -24 -4
-42 2 -37 14 4 10 -6 13 -38 11 -117 -9 -123 -8 -126 9 -2 11 1 15 11 12 8 -4
14 0 14 10 0 8 -6 16 -14 16 -40 4 -47 3 -50 -8 -2 -6 4 -13 14 -16 10 -2 1
-4 -20 -3 -32 0 -36 2 -23 11 9 7 13 15 9 19 -4 3 2 12 12 20 16 12 11 14 -48
20 -81 9 -80 26 1 20 40 -3 51 -2 37 5 -11 5 -32 10 -46 10 -18 1 -28 8 -32
21 -3 11 -1 20 4 20 5 0 9 -6 9 -14 0 -10 11 -12 44 -9 42 5 46 3 93 -44 55
-57 104 -86 136 -80 21 3 21 4 -3 14 -28 13 -90 76 -90 92 0 6 6 11 13 11 8 0
7 4 -3 10 -8 5 -10 10 -5 10 6 0 21 -7 33 -16 12 -8 27 -12 32 -9 16 10 12 23
-6 21 -9 0 -19 5 -21 12 -3 7 5 12 21 12 18 0 26 -5 26 -18z m315 8 c3 -5 1
-10 -4 -10 -6 0 -11 5 -11 10 0 6 2 10 4 10 3 0 8 -4 11 -10z m391 -37 c-1
-38 -24 -54 -34 -24 -3 10 0 12 12 8 22 -8 21 9 -1 22 -17 10 -17 10 -1 11 12
0 15 5 11 17 -4 10 -2 14 4 10 6 -4 10 -23 9 -44z m-626 21 c0 -2 -7 -4 -15
-4 -8 0 -15 4 -15 10 0 5 7 7 15 4 8 -4 15 -8 15 -10z m-763 0 c-3 -3 -12 -4
-19 -1 -8 3 -5 6 6 6 11 1 17 -2 13 -5z m1291 -12 c3 -9 -4 -11 -24 -6 -16 4
-34 7 -41 7 -7 0 -13 4 -13 8 0 13 73 4 78 -9z m-1368 -2 c8 -5 11 -10 5 -10
-5 0 -17 5 -25 10 -8 5 -10 10 -5 10 6 0 17 -5 25 -10z m177 -21 c1 -14 0 -17
-3 -6 -3 9 -12 17 -20 17 -8 0 -12 5 -9 11 11 17 30 4 32 -22z m708 21 c3 -6
-1 -7 -9 -4 -18 7 -21 14 -7 14 6 0 13 -4 16 -10z m530 -10 c-3 -5 -13 -10
-21 -10 -8 0 -14 5 -14 10 0 6 9 10 21 10 11 0 17 -4 14 -10z m-1475 -18 c0
-4 -11 -7 -25 -7 -22 0 -23 1 -9 12 16 12 34 9 34 -5z m1256 -19 c-2 -2 -16
-1 -30 3 -21 5 -24 9 -15 20 10 12 15 12 30 -2 11 -10 17 -19 15 -21z m519 9
c-3 -3 -11 0 -18 7 -9 10 -8 11 6 5 10 -3 15 -9 12 -12z m-411 -13 c-3 -5 -14
-7 -24 -4 -10 3 -21 1 -25 -5 -3 -5 -11 -10 -16 -10 -6 0 -4 6 3 14 24 24 77
28 62 5z m271 -9 c-10 -11 -13 -20 -7 -20 7 0 12 -4 12 -10 0 -16 -17 -12 -24
6 -6 15 12 43 28 44 5 0 1 -9 -9 -20z m-709 0 c15 -6 25 -13 22 -15 -3 -3 -20
1 -39 9 -38 17 -25 21 17 6z m170 -37 c-6 -6 -46 30 -46 41 0 5 11 -1 25 -14
14 -13 23 -25 21 -27z m-513 22 c4 -8 3 -16 -1 -19 -4 -3 -9 4 -9 15 -2 23 3
25 10 4z m572 5 c8 -13 -5 -13 -25 0 -13 8 -13 10 2 10 9 0 20 -4 23 -10z
m-1252 -7 c-7 -2 -19 -2 -25 0 -7 3 -2 5 12 5 14 0 19 -2 13 -5z m1372 -3 c-3
-5 -10 -10 -16 -10 -5 0 -9 5 -9 10 0 6 7 10 16 10 8 0 12 -4 9 -10z m-245
-10 c0 -5 -2 -10 -4 -10 -3 0 -8 5 -11 10 -3 6 -1 10 4 10 6 0 11 -4 11 -10z
m-1177 -22 c3 -8 -4 -13 -19 -13 -22 0 -23 1 -7 13 9 6 18 12 19 12 1 0 4 -6
7 -12z m477 2 c0 -13 -11 -13 -30 0 -12 8 -11 10 8 10 12 0 22 -4 22 -10z m84
-4 c-9 -24 15 -56 41 -56 14 0 25 -3 25 -7 0 -5 11 -13 25 -20 21 -9 27 -8 38
5 16 23 51 26 67 7 7 -9 8 -15 2 -15 -6 0 -12 5 -14 12 -3 8 -11 7 -27 -4 -21
-15 -21 -17 -4 -21 10 -2 2 -4 -17 -3 -19 1 -41 5 -49 10 -12 8 -23 10 -69 15
-7 0 -10 6 -7 11 3 6 2 10 -4 10 -5 0 -17 3 -27 7 -12 4 -15 3 -10 -5 4 -7 2
-12 -3 -12 -16 0 -13 16 4 34 20 19 19 26 -2 26 -10 0 -25 5 -33 10 -11 7 -4
10 27 10 33 0 41 -3 37 -14z m50 -35 c-8 -10 -32 22 -27 35 4 12 8 10 18 -8 6
-13 10 -25 9 -27z m1317 30 c15 -7 35 -32 45 -55 14 -31 25 -41 42 -41 13 0
30 -9 38 -19 8 -11 14 -16 14 -12 0 5 7 3 15 -4 10 -9 12 -17 6 -23 -6 -6 -15
-4 -26 6 -9 10 -30 15 -54 14 -32 -2 -37 0 -33 15 3 13 -2 18 -19 19 -17 1
-19 3 -6 6 30 8 18 22 -29 34 -31 8 -41 14 -32 20 18 12 31 11 23 -1 -3 -5 3
-10 13 -10 15 0 19 5 15 21 -6 20 -14 21 -55 4 -11 -4 -18 -3 -18 4 0 6 9 11
20 11 21 0 27 15 10 23 -6 3 -7 5 -3 3 5 -1 20 -8 34 -15z m-1431 -31 c0 -5
-10 -10 -22 -10 -19 0 -20 2 -8 10 19 13 30 13 30 0z m303 -6 c-3 -8 -12 -13
-20 -10 -8 3 -17 6 -19 6 -3 0 -2 5 1 10 11 17 45 12 38 -6z m159 3 c7 -8 23
-19 36 -26 12 -6 22 -18 22 -26 0 -8 8 -19 18 -25 14 -9 14 -11 1 -7 -9 3 -21
1 -27 -5 -11 -11 -32 -3 -32 13 0 5 5 9 11 9 5 0 7 -6 3 -12 -5 -10 -4 -10 6
-1 18 16 2 36 -26 30 -13 -2 -24 -1 -24 2 0 4 -12 8 -27 9 -15 1 -31 6 -35 10
-4 4 9 6 30 4 33 -3 35 -2 20 11 -10 8 -15 17 -11 20 10 10 20 8 35 -6z m1308
3 c0 -5 -4 -10 -10 -10 -5 0 -10 5 -10 10 0 6 5 10 10 10 6 0 10 -4 10 -10z
m-2013 -6 c-3 -3 -12 -4 -19 -1 -8 3 -5 6 6 6 11 1 17 -2 13 -5z m572 -18 c9
-11 9 -16 -1 -22 -7 -4 -10 -4 -6 1 4 4 3 14 -3 22 -6 7 -9 13 -6 13 2 0 10
-6 16 -14z m-654 -5 c9 -16 -9 -20 -23 -5 -10 12 -10 14 2 14 8 0 17 -4 21 -9z
m705 -21 c0 -5 -7 -7 -15 -4 -8 4 -15 8 -15 10 0 2 7 4 15 4 8 0 15 -4 15 -10z
m-680 -21 c0 -6 -4 -7 -10 -4 -5 3 -10 11 -10 16 0 6 5 7 10 4 6 -3 10 -11 10
-16z m720 11 c0 -5 -2 -10 -4 -10 -3 0 -8 5 -11 10 -3 6 -1 10 4 10 6 0 11 -4
11 -10z m-430 -25 c0 -8 9 -19 20 -25 16 -9 18 -15 9 -37 -5 -14 -7 -28 -5
-30 3 -3 27 13 54 36 66 56 89 55 98 -5 5 -34 10 -44 21 -40 8 4 32 9 54 12
43 7 51 -6 24 -42 -13 -17 -14 -17 -15 -1 0 23 -15 22 -53 -5 l-32 -22 19 22
19 22 -32 -11 c-18 -6 -35 -18 -38 -25 -7 -19 -23 -7 -23 18 0 14 5 18 15 14
17 -6 21 9 4 19 -6 4 -27 8 -47 9 -29 2 -44 -4 -68 -26 -20 -19 -34 -26 -38
-19 -4 6 0 11 8 11 21 0 31 21 15 31 -8 5 -22 7 -32 5 -10 -2 -20 1 -23 8 -3
8 -17 12 -37 10 l-32 -4 47 45 c49 47 68 55 68 30z m-305 -13 c-3 -3 -11 0
-18 7 -9 10 -8 11 6 5 10 -3 15 -9 12 -12z m571 3 c-11 -8 -24 -15 -30 -15 -5
0 -18 -8 -29 -17 -11 -10 -17 -12 -13 -5 9 16 66 52 81 52 6 -1 1 -7 -9 -15z
m214 -5 c0 -17 -3 -19 -19 -10 -27 14 -58 13 -64 -2 -2 -7 -8 -10 -12 -5 -15
13 12 24 88 36 4 0 7 -8 7 -19z m150 16 c0 -2 -7 -7 -16 -10 -8 -3 -12 -2 -9
4 6 10 25 14 25 6z m99 -5 c8 -5 9 -11 3 -15 -6 -3 -14 -1 -17 5 -4 5 -14 8
-22 5 -8 -3 -11 -1 -8 4 8 12 25 13 44 1z m391 -1 c0 -5 -10 -10 -22 -10 -19
0 -20 2 -8 10 19 13 30 13 30 0z m-810 -15 c11 -13 8 -15 -21 -15 -31 0 -32 1
-13 15 10 8 20 15 20 15 1 0 7 -7 14 -15z m516 -32 c13 -13 18 -25 13 -28 -5
-4 -9 -1 -9 4 0 6 -5 11 -11 11 -6 0 -9 -7 -5 -15 4 -12 2 -13 -14 -2 -11 6
-20 16 -20 20 0 5 -7 6 -16 3 -8 -3 -12 -2 -9 4 3 6 18 8 33 4 26 -5 26 -5 8
10 -11 9 -29 14 -40 11 -21 -6 -21 -6 -2 9 21 17 26 15 72 -31z m-161 27 c3
-6 -1 -7 -10 -4 -8 4 -23 0 -33 -7 -15 -13 -16 -12 -3 4 15 19 36 22 46 7z
m48 -17 c-7 -2 -19 -2 -25 0 -7 3 -2 5 12 5 14 0 19 -2 13 -5z m412 1 c13 -5
14 -9 4 -15 -10 -6 -10 -11 -1 -22 7 -7 9 -17 6 -20 -4 -4 4 -11 17 -16 13 -5
33 -17 45 -28 39 -35 65 -45 105 -38 32 6 39 4 39 -9 0 -12 -6 -15 -25 -10
-15 4 -25 2 -25 -5 0 -6 -15 -3 -37 9 -21 11 -47 20 -58 20 -17 0 -18 2 -5 11
11 8 5 9 -25 5 -38 -5 -39 -4 -16 8 l25 14 -32 7 c-17 3 -37 4 -44 0 -7 -4 -4
1 7 10 17 13 18 17 5 25 -8 5 -26 6 -39 3 -17 -4 -22 -2 -17 6 4 6 17 11 29
11 21 1 21 1 4 14 -18 14 -18 14 0 19 10 3 19 5 20 6 1 0 9 -2 18 -5z m-1665
-14 c0 -5 -5 -10 -11 -10 -5 0 -7 5 -4 10 3 6 8 10 11 10 2 0 4 -4 4 -10z
m994 -9 c3 -5 0 -14 -8 -20 -10 -8 -16 -8 -25 3 -9 11 -9 15 1 19 20 8 26 8
32 -2z m281 0 c3 -5 1 -12 -5 -16 -5 -3 -10 1 -10 9 0 18 6 21 15 7z m920 -32
c-7 -10 -63 12 -69 27 -3 8 8 7 34 -3 22 -9 37 -19 35 -24z m-2230 13 c-3 -3
-11 0 -18 7 -9 10 -8 11 6 5 10 -3 15 -9 12 -12z m2340 8 c3 -5 1 -10 -4 -10
-6 0 -11 5 -11 10 0 6 2 10 4 10 3 0 8 -4 11 -10z m-1995 -22 c0 -19 -2 -20
-10 -8 -13 19 -13 30 0 30 6 0 10 -10 10 -22z m597 2 c8 -12 9 -21 3 -25 -6
-3 -10 -1 -10 4 0 6 -11 11 -25 11 -24 0 -32 10 -18 23 13 13 38 7 50 -13z
m1208 10 c3 -6 -1 -7 -9 -4 -18 7 -21 14 -7 14 6 0 13 -4 16 -10z m120 1 c3
-5 2 -12 -3 -15 -5 -3 -9 1 -9 9 0 17 3 19 12 6z m30 -1 c3 -5 1 -10 -4 -10
-6 0 -11 5 -11 10 0 6 2 10 4 10 3 0 8 -4 11 -10z m-955 -10 c0 -5 -5 -10 -11
-10 -5 0 -7 5 -4 10 3 6 8 10 11 10 2 0 4 -4 4 -10z m-270 -20 c6 -12 16 -17
26 -13 10 4 20 -1 26 -10 5 -10 17 -17 26 -17 25 -1 57 -27 40 -33 -10 -4 -10
-8 1 -16 10 -6 21 -6 32 0 29 15 35 10 10 -7 l-24 -17 24 -18 c13 -10 30 -19
37 -19 6 0 12 -5 12 -11 0 -6 -9 -8 -22 -4 -15 4 -19 3 -10 -3 10 -7 10 -11
-3 -22 -12 -10 -15 -10 -15 5 0 11 -5 15 -15 11 -44 -18 -47 -16 -20 8 20 18
26 29 18 32 -7 3 -13 12 -13 19 0 7 -14 16 -31 20 -27 6 -28 8 -13 19 15 12
15 13 -7 19 -13 3 -26 1 -30 -4 -4 -8 -9 -8 -13 -1 -3 6 -1 12 6 14 6 2 8 10
4 17 -5 7 -14 10 -21 7 -7 -2 -23 6 -36 20 -12 13 -17 24 -11 24 6 0 16 -9 22
-20z m364 5 c-4 -10 -13 -13 -25 -10 -11 4 -19 2 -19 -5 0 -6 5 -8 10 -5 6 3
10 2 10 -4 0 -11 -39 -25 -47 -17 -4 3 -1 6 5 6 7 0 12 5 12 10 0 6 -10 10
-22 10 -29 0 -17 11 24 20 51 12 58 11 52 -5z m751 5 c3 -5 2 -10 -4 -10 -5 0
-13 5 -16 10 -3 6 -2 10 4 10 5 0 13 -4 16 -10z m-674 -21 c16 -11 27 -24 24
-29 -3 -5 8 -16 24 -25 35 -17 45 -19 36 -5 -3 6 -1 10 5 10 7 0 10 -6 7 -14
-7 -17 49 -60 59 -45 3 6 2 14 -4 18 -6 4 7 7 28 8 44 2 54 -13 15 -23 -14 -3
-25 -9 -25 -13 0 -4 -12 -13 -27 -20 -23 -11 -25 -10 -13 3 14 18 3 21 -20 6
-9 -6 -17 -5 -22 3 -6 9 -10 8 -18 -3 -15 -23 -12 -29 13 -23 22 5 22 5 2 -10
-25 -20 -35 -21 -35 -3 0 19 -25 27 -39 13 -6 -6 -14 -8 -18 -4 -10 10 2 19
39 26 24 5 33 12 33 26 0 15 -6 19 -24 17 -20 -2 -22 0 -11 14 12 13 10 15
-11 11 -13 -2 -18 -2 -11 0 25 9 11 19 -25 19 -42 0 -58 -13 -41 -34 8 -9 8
-16 0 -24 -9 -9 -12 -8 -12 3 0 10 -12 15 -40 15 -32 1 -38 -1 -29 -12 6 -7
-6 -5 -30 7 -23 11 -41 21 -41 22 0 7 87 0 99 -7 7 -5 15 -5 19 -1 4 4 1 10
-7 13 -18 6 42 32 75 32 33 0 30 13 -8 33 -23 11 -27 16 -15 16 11 1 32 -8 48
-20z m-312 -15 c13 -12 -8 -10 -29 2 l-25 15 25 -7 c14 -3 27 -8 29 -10z m256
6 c3 -6 -4 -10 -17 -10 -18 0 -20 2 -8 10 19 12 18 12 25 0z m-145 -10 c0 -5
-4 -10 -10 -10 -5 0 -10 5 -10 10 0 6 5 10 10 10 6 0 10 -4 10 -10z m335 0 c3
-5 1 -10 -4 -10 -6 0 -11 5 -11 10 0 6 2 10 4 10 3 0 8 -4 11 -10z m228 -5 c1
-5 -10 -11 -25 -13 -16 -2 -28 1 -28 7 0 20 49 26 53 6z m-1956 -1 c-3 -3 -12
-4 -19 -1 -8 3 -5 6 6 6 11 1 17 -2 13 -5z m451 0 c31 -9 28 -21 -6 -21 -17 0
-29 6 -29 14 0 15 3 15 35 7z m672 -3 c13 20 42 0 47 -31 3 -22 2 -23 -15 -7
-25 23 -49 21 -55 -4 -4 -13 -10 -18 -17 -14 -9 6 -9 9 0 15 23 14 0 31 -33
25 -22 -5 -29 -4 -22 3 14 15 58 20 73 8 9 -7 16 -5 22 5z m-110 -19 c0 -10
-7 -27 -15 -38 -14 -19 -15 -19 -21 4 -8 28 -13 28 -58 -3 -23 -16 -34 -19
-28 -10 11 21 82 64 105 65 10 0 17 -7 17 -18z m730 -12 c0 -5 -9 -10 -21 -10
-11 0 -17 5 -14 10 3 6 13 10 21 10 8 0 14 -4 14 -10z m-385 -29 c-3 -6 -11
-11 -16 -11 -5 0 -4 6 3 14 14 16 24 13 13 -3z m-174 -12 c11 -5 17 -14 14
-20 -4 -5 10 -9 31 -9 51 0 36 -12 -20 -15 -30 -3 -46 1 -50 10 -5 14 -41 10
-63 -8 -9 -6 -18 -5 -27 2 -19 16 -66 -7 -94 -46 -20 -26 -21 -27 -15 -4 7 27
88 83 118 80 11 -1 31 3 45 9 32 14 37 14 61 1z m204 1 c3 -5 -1 -10 -10 -10
-9 0 -13 5 -10 10 3 6 8 10 10 10 2 0 7 -4 10 -10z m215 2 c0 -12 -23 -32 -37
-32 -7 0 -13 5 -13 10 0 6 8 10 18 8 9 -2 16 3 15 10 -2 6 2 12 7 12 6 0 10
-4 10 -8z m300 -2 c0 -5 -7 -10 -15 -10 -8 0 -15 5 -15 10 0 6 7 10 15 10 8 0
15 -4 15 -10z m360 -2 c0 -4 11 -3 25 2 22 8 30 5 55 -20 36 -37 80 -56 90
-39 6 8 9 8 15 -1 4 -6 13 -9 20 -6 18 7 110 -87 112 -114 2 -17 -1 -20 -10
-11 -6 6 -17 11 -25 11 -7 0 -20 7 -28 15 -16 15 -65 21 -63 8 4 -26 -4 -30
-45 -26 -46 6 -66 -8 -47 -31 21 -25 -12 -24 -38 1 -20 19 -21 23 -7 23 9 0
15 4 11 9 -3 5 2 16 10 25 14 14 13 16 -12 22 -15 3 -36 8 -47 11 -12 3 -16 1
-12 -6 4 -6 3 -11 -3 -11 -22 0 -19 19 6 38 l26 19 -26 5 c-15 3 -27 1 -27 -5
0 -6 -9 -2 -19 7 -11 10 -25 15 -30 11 -6 -3 -11 1 -11 9 0 8 -5 18 -12 22 -7
4 -8 3 -4 -4 4 -7 3 -12 -2 -12 -13 0 -21 49 -9 53 21 7 107 3 107 -5z m-742
-41 c8 -10 6 -13 -9 -13 -19 0 -24 7 -12 19 8 9 9 9 21 -6z m-118 -38 c0 -11
-27 -12 -34 0 -3 4 -3 11 0 14 8 8 34 -3 34 -14z m-188 -9 c10 0 21 -7 24 -15
4 -10 14 -13 30 -9 15 4 24 2 24 -5 0 -19 -28 -24 -72 -13 -36 9 -45 8 -66 -9
-14 -10 -21 -19 -16 -19 10 0 -17 -20 -28 -20 -4 0 -6 9 -5 20 1 12 8 20 19
20 10 0 18 5 18 10 0 15 -16 12 -60 -10 -22 -11 -40 -17 -40 -13 0 14 17 34
26 32 5 -1 26 5 46 14 46 21 49 21 41 1 -4 -12 -2 -15 8 -12 8 3 14 15 13 27
0 15 3 18 10 11 5 -5 18 -10 28 -10z m283 -38 c-4 -4 -12 1 -19 11 -14 19 -32
22 -41 8 -3 -5 9 -17 27 -25 29 -15 33 -15 50 0 17 16 18 16 18 -1 0 -13 6
-16 25 -13 32 6 40 -5 23 -32 -15 -24 -31 -25 -52 -5 -15 16 -37 20 -35 8 3
-21 -3 -29 -21 -29 -18 0 -18 2 -3 18 18 20 10 39 -9 20 -7 -7 -16 -12 -22
-12 -5 0 -2 6 9 13 14 11 15 16 5 22 -8 5 -18 2 -26 -9 -10 -14 -16 -15 -33
-6 -21 11 -29 40 -11 40 6 0 10 -4 10 -10 0 -5 7 -10 15 -10 18 0 20 16 3 23
-7 3 2 11 21 20 31 13 35 13 53 -5 11 -11 17 -23 13 -26z m45 40 c0 -13 -12
-22 -22 -16 -10 6 -1 24 13 24 5 0 9 -4 9 -8z m75 -4 c13 -13 -33 -14 -50 -1
-18 12 -17 13 13 10 18 -2 34 -6 37 -9z m-255 -8 c0 -5 -2 -10 -4 -10 -3 0 -8
5 -11 10 -3 6 -1 10 4 10 6 0 11 -4 11 -10z m336 -11 c19 -22 19 -22 -2 -11
-12 6 -24 8 -28 5 -3 -3 -6 -2 -6 4 0 8 10 23 15 23 1 0 10 -10 21 -21z m524
13 c0 -4 -9 -8 -20 -9 -11 -1 -18 2 -15 8 7 11 35 12 35 1z m-259 -30 c-7 -2
-18 1 -23 6 -8 8 -4 9 13 5 13 -4 18 -8 10 -11z m19 -27 c6 4 8 10 5 15 -3 5
0 12 6 16 8 4 9 3 5 -4 -4 -7 -1 -12 8 -12 9 0 16 -5 16 -10 0 -6 7 -10 16 -8
10 2 19 -2 21 -9 3 -7 -3 -10 -16 -6 -11 3 -36 0 -56 -7 -37 -12 -67 -1 -62
23 1 6 -7 13 -18 15 -19 4 -19 4 -2 -15 21 -24 22 -39 2 -46 -21 -9 -29 11
-13 30 11 14 11 16 -2 11 -18 -7 -45 18 -30 27 6 3 14 4 18 1 4 -2 14 -1 22 4
9 6 24 2 42 -11 15 -11 32 -17 38 -14z m145 25 c-3 -5 1 -10 9 -10 9 0 16 -9
16 -21 0 -11 -4 -17 -10 -14 -22 14 -8 -14 14 -28 21 -14 26 -14 36 -2 11 14
40 21 40 11 0 -2 3 -13 7 -23 6 -16 5 -16 -11 -4 -13 11 -20 11 -28 3 -9 -9
-8 -12 3 -12 12 0 12 -1 -1 -9 -8 -6 -18 -7 -22 -5 -4 3 -5 -2 -2 -10 3 -9 -2
-17 -15 -21 -12 -3 -21 -13 -21 -20 0 -8 -4 -16 -9 -19 -5 -4 -7 3 -4 15 5 19
3 21 -28 14 -32 -6 -33 -6 -18 10 9 9 30 17 47 17 26 1 30 4 21 15 -8 9 -25
12 -50 9 -23 -2 -39 0 -39 6 0 7 19 9 50 6 41 -4 48 -3 39 8 -6 7 -26 19 -45
26 -19 6 -34 16 -34 20 0 12 24 10 40 -4 12 -11 12 -10 2 3 -6 9 -9 19 -5 22
3 4 -3 7 -15 7 -12 0 -22 5 -22 10 0 6 14 10 31 10 17 0 28 -4 24 -10z m-382
-7 c3 -5 -6 -9 -20 -10 -19 -1 -22 1 -12 8 17 11 26 11 32 2z m487 -3 c0 -5
-2 -10 -4 -10 -3 0 -8 5 -11 10 -3 6 -1 10 4 10 6 0 11 -4 11 -10z m-874 -16
c-3 -9 -6 -24 -6 -34 0 -19 3 -20 -80 6 -10 4 -19 -4 -25 -22 -9 -26 -11 -27
-27 -11 -17 18 -55 22 -74 9 -6 -4 -17 -18 -23 -30 -16 -31 -24 -23 -9 9 19
40 56 62 112 65 28 2 65 7 81 13 45 14 58 13 51 -5z m940 -3 c-10 -11 -15 -25
-11 -30 9 -16 -14 -13 -31 4 -13 12 -12 15 4 24 11 6 22 7 26 4 3 -3 6 -1 6 5
0 7 5 12 12 12 6 0 4 -8 -6 -19z m-656 -12 c0 -7 9 -9 23 -6 29 8 50 -6 45
-28 -3 -17 -4 -17 -19 -2 -9 9 -19 13 -22 10 -8 -8 -67 17 -67 28 0 5 9 9 20
9 11 0 20 -5 20 -11z m194 -15 c3 -8 10 -13 15 -9 5 3 12 1 15 -3 3 -5 -6 -15
-19 -22 -14 -7 -27 -22 -31 -32 -4 -13 -14 -18 -34 -16 -35 3 -29 15 16 34 33
14 44 37 24 49 -6 4 -22 0 -35 -9 -13 -9 -32 -16 -42 -15 -10 0 -1 9 22 19 50
23 61 24 69 4z m791 -4 c3 -5 -3 -10 -15 -10 -12 0 -18 5 -15 10 3 6 10 10 15
10 5 0 12 -4 15 -10z m265 -51 c0 -17 -9 -9 -24 24 l-16 32 20 -24 c11 -13 20
-27 20 -32z m-1354 22 c-3 -5 -15 -11 -26 -14 -17 -4 -19 -3 -9 9 12 15 44 20
35 5z m408 3 c12 -5 13 -10 5 -26 -12 -23 3 -40 28 -31 7 3 13 -1 13 -8 0 -7
-3 -9 -7 -6 -3 4 -11 3 -17 -2 -6 -5 -21 -5 -35 0 -20 8 -21 12 -10 25 10 13
10 17 0 24 -8 4 -10 13 -7 19 8 13 9 13 30 5z m-521 -68 c2 -28 5 -31 19 -23
9 6 14 16 11 23 -5 14 13 28 21 16 8 -13 -22 -50 -54 -67 -27 -14 -30 -13 -43
5 -18 27 -53 38 -112 36 -48 -2 -82 14 -71 33 3 4 18 7 33 5 15 -1 36 2 47 8
11 6 45 14 76 17 62 7 70 1 73 -53z m160 47 c18 -66 18 -75 0 -71 -19 4 -20 9
-8 46 10 35 -9 27 -64 -27 -28 -27 -51 -47 -51 -43 0 9 103 112 111 112 4 0
10 -8 12 -17z m67 7 c8 -5 12 -11 10 -14 -3 -2 -14 2 -24 10 -22 15 -10 19 14
4z m248 -11 c4 -11 2 -11 -8 -2 -11 10 -16 9 -26 -5 -7 -9 -15 -14 -19 -11 -8
9 25 41 38 36 6 -2 13 -10 15 -18z m-157 -7 c-7 -2 -18 1 -23 6 -8 8 -4 9 13
5 13 -4 18 -8 10 -11z m307 -16 c3 -27 2 -28 -13 -13 -9 10 -21 17 -26 17 -5
0 -9 7 -9 16 0 10 7 14 23 12 16 -2 23 -11 25 -32z m489 12 c25 -27 56 -88 50
-95 -3 -2 -13 0 -24 6 -22 12 -78 27 -111 30 -9 1 -11 8 -7 24 6 18 5 20 -6
10 -28 -27 -31 -11 -4 17 35 36 73 39 102 8z m-803 -37 c10 -15 -18 -29 -46
-24 -29 6 -36 18 -15 26 20 9 55 8 61 -2z m100 -7 c5 -13 2 -15 -13 -11 -12 3
-22 -1 -26 -11 -3 -8 -8 -12 -12 -8 -7 6 25 46 37 46 5 0 11 -7 14 -16z m469
2 c46 -19 68 -49 73 -98 2 -24 1 -37 -2 -30 -3 6 -12 12 -19 12 -7 0 -15 7
-19 15 -3 8 -11 12 -19 9 -7 -2 -19 6 -27 21 -8 14 -20 23 -27 21 -7 -3 -15
-1 -18 4 -3 5 -13 6 -23 3 -11 -4 -6 5 12 25 35 37 28 36 69 18z m831 -2 c9
-3 16 -10 16 -15 0 -14 -26 -10 -40 6 -13 16 -3 20 24 9z m-1489 -38 c0 -14
-9 -19 -39 -22 l-39 -3 24 25 c26 28 54 28 54 0z m310 14 c3 -5 3 -15 -1 -21
-6 -11 -23 6 -24 24 0 10 18 9 25 -3z m759 -32 c3 -16 5 -28 2 -28 -10 0 -36
52 -30 61 8 14 20 0 28 -33z m396 22 c0 -5 -4 -10 -9 -10 -6 0 -13 5 -16 10
-3 6 1 10 9 10 9 0 16 -4 16 -10z m-996 -11 c-3 -6 -2 -14 3 -18 9 -6 34 -81
27 -81 -3 0 -15 12 -28 27 -25 29 -46 25 -46 -9 0 -17 -2 -19 -16 -7 -14 11
-14 14 4 28 11 9 27 28 37 44 9 15 19 27 22 27 2 0 1 -5 -3 -11z m-574 -17 c0
-10 5 -23 11 -29 13 -13 3 -36 -12 -27 -5 3 -6 10 -3 16 4 7 -8 8 -37 3 -24
-5 -51 -9 -61 -10 -9 0 -24 -8 -34 -16 -13 -10 -12 -5 4 16 39 51 132 84 132
47z m190 -1 c0 -17 -27 -37 -37 -27 -6 6 20 46 29 46 5 0 8 -9 8 -19z m160 4
c0 -8 -7 -15 -15 -15 -8 0 -15 -6 -15 -12 0 -10 -3 -9 -9 1 -5 7 -14 11 -20 7
-7 -5 -9 -1 -5 9 4 10 13 13 24 10 10 -3 21 -1 25 5 9 14 15 12 15 -5z m-80
-83 c0 -18 5 -42 10 -53 13 -23 -2 -26 -20 -4 -15 18 -51 20 -68 3 -20 -20
-24 -2 -8 30 21 41 35 48 51 26 13 -17 14 -15 15 21 0 30 3 36 10 25 5 -8 10
-30 10 -48z m138 46 c13 -16 20 -57 10 -58 -34 -2 -42 1 -30 9 10 6 10 10 -2
21 -13 10 -17 9 -22 -4 -3 -9 -13 -16 -22 -16 -11 0 -8 8 13 30 32 33 38 35
53 18z m-265 -27 c20 -35 23 -58 5 -43 -21 16 -75 24 -83 13 -3 -6 -11 -11
-18 -11 -6 0 4 16 23 35 19 19 39 35 45 35 6 0 18 -13 28 -29z m1471 -29 c3
-15 9 -38 12 -52 6 -21 5 -23 -7 -14 -8 7 -29 15 -46 19 -18 3 -35 10 -37 14
-3 4 6 24 20 45 28 41 47 38 58 -12z m82 -88 c9 -20 13 -48 9 -61 l-6 -25 -20
26 c-11 14 -27 26 -35 26 -17 0 -17 9 -4 44 14 37 38 32 56 -10z m87 -64 c3
-11 1 -20 -4 -20 -5 0 -9 5 -9 10 0 6 -8 10 -17 10 -15 0 -16 2 -3 10 22 14
27 12 33 -10z m-40 -48 c5 -26 -7 -52 -23 -52 -5 0 -7 22 -7 49 2 53 20 55 30
3z m47 -53 c0 -11 -4 -17 -10 -14 -5 3 -10 15 -10 26 0 11 5 17 10 14 6 -3 10
-15 10 -26z m-3 -122 c5 -17 3 -17 -14 -7 -12 8 -20 24 -20 39 0 14 -3 42 -7
61 -5 24 -1 18 14 -20 12 -30 24 -63 27 -73z m-697 -171 c3 -11 1 -42 -4 -68
-12 -58 -31 -62 -76 -15 -29 29 -31 37 -27 82 3 28 11 63 18 78 l13 29 35 -43
c20 -23 38 -52 41 -63z m-233 -139 c131 -52 246 -97 256 -100 15 -6 17 -13 11
-39 -4 -18 -8 -44 -8 -57 -1 -13 -6 -26 -13 -28 -6 -2 -75 19 -153 46 -78 28
-145 51 -150 51 -11 0 -33 -57 -26 -68 3 -5 63 -26 134 -46 l129 -38 -14 -56
c-10 -39 -11 -58 -4 -60 6 -2 11 -13 11 -24 0 -15 -4 -18 -17 -13 -19 8 -146
37 -228 51 -49 9 -50 10 -53 47 -2 20 -6 37 -9 37 -5 0 -598 165 -740 206 -51
15 -53 17 -53 50 0 39 28 114 42 114 6 0 188 -50 405 -111 374 -105 395 -109
408 -92 17 23 12 25 -85 48 -41 9 -86 24 -99 32 -21 13 -23 20 -17 59 5 41 21
84 31 84 2 0 111 -42 242 -93z m-2127 -390 c0 -5 -7 -2 -15 7 -8 8 -15 19 -15
25 0 6 -7 11 -15 11 -15 0 -20 21 -8 34 7 6 53 -60 53 -77z m890 30 c0 -2 -10
-12 -22 -23 l-23 -19 19 23 c18 21 26 27 26 19z m1344 -164 c3 -10 9 -25 12
-33 5 -13 4 -13 -5 0 -9 12 -11 11 -11 -8 0 -13 4 -20 10 -17 6 4 7 -6 4 -25
-4 -19 -2 -30 5 -30 6 0 11 -5 11 -11 0 -5 -4 -7 -10 -4 -5 3 -10 1 -10 -4 0
-6 -7 -11 -15 -11 -18 0 -18 5 -4 32 17 32 3 32 -37 -1 -21 -17 -39 -29 -41
-27 -6 6 19 98 34 129 15 30 47 36 57 10z m-1284 -23 c-12 -16 -24 -30 -26
-30 -3 0 4 14 16 30 12 17 24 30 26 30 3 0 -4 -13 -16 -30z m1336 -11 c0 -26
-3 -24 -21 11 -15 29 -15 30 2 19 10 -6 19 -20 19 -30z m79 1 c3 -5 -1 -10 -9
-10 -9 0 -16 5 -16 10 0 6 4 10 9 10 6 0 13 -4 16 -10z m-2204 -42 c16 -30 7
-29 -19 3 -17 21 -19 27 -7 23 8 -4 20 -15 26 -26z m2148 -28 c0 -10 -3 -8 -9
5 -12 27 -12 43 0 25 5 -8 9 -22 9 -30z m-936 -29 c34 -16 118 -52 187 -81 69
-29 129 -56 134 -61 18 -17 34 -9 47 22 l13 32 100 -7 c247 -16 376 -30 376
-40 0 -22 -21 -81 -34 -98 -12 -16 -42 -19 -258 -24 l-245 -7 -159 103 c-88
56 -185 119 -216 139 -32 20 -58 39 -58 43 0 17 54 7 113 -21z m899 -243 c-9
-9 -15 -9 -24 0 -9 9 -7 12 12 12 19 0 21 -3 12 -12z m-37 -67 c3 -5 0 -13 -6
-16 -5 -4 -8 -13 -5 -21 4 -9 -2 -14 -16 -14 -17 0 -18 3 -8 15 7 8 10 22 6
30 -6 16 19 21 29 6z m78 -12 c4 -16 3 -18 -9 -8 -7 6 -11 15 -8 20 8 13 11
11 17 -12z m-134 -66 c-13 -15 -12 -16 9 -11 12 4 22 2 22 -3 0 -5 -11 -9 -25
-9 -14 0 -25 2 -25 4 0 14 14 36 22 36 6 0 4 -8 -3 -17z m-47 -82 l-7 -54
-130 -88 c-125 -84 -130 -87 -133 -63 -2 14 6 53 18 87 l21 62 117 56 c64 31
118 56 119 55 1 -1 -2 -25 -5 -55z m98 39 c0 -5 -5 -10 -11 -10 -5 0 -7 5 -4
10 3 6 8 10 11 10 2 0 4 -4 4 -10z m20 -160 c0 -5 -9 -14 -21 -21 -14 -7 -19
-17 -16 -30 3 -10 1 -22 -4 -25 -5 -3 -8 -13 -7 -22 2 -12 -63 -44 -287 -138
-159 -67 -294 -118 -298 -114 -5 4 -7 20 -5 36 2 23 9 30 33 34 22 4 35 15 47
40 17 33 29 38 260 127 133 50 253 95 266 98 12 3 20 10 17 15 -3 6 -1 10 4
10 6 0 11 -4 11 -10z m-70 -210 c0 -5 -2 -10 -4 -10 -3 0 -8 5 -11 10 -3 6 -1
10 4 10 6 0 11 -4 11 -10z m-58 -14 c23 7 23 6 4 -14 -16 -19 -20 -20 -34 -6
-10 10 -17 12 -21 5 -4 -6 -21 -10 -38 -8 -39 3 -32 17 8 17 16 0 29 5 29 11
0 8 4 8 15 -1 8 -7 23 -9 37 -4z m33 -34 c-11 -3 -23 -9 -27 -16 -6 -8 -8 -8
-8 1 0 16 32 33 45 25 5 -4 1 -8 -10 -10z m-135 -12 c0 -5 -8 -10 -17 -10 -15
0 -16 2 -3 10 19 12 20 12 20 0z m77 -24 c0 -8 -6 -12 -15 -9 -11 5 -11 7 0
14 7 5 13 9 14 9 0 0 1 -6 1 -14z m-102 -36 c4 -7 -2 -9 -19 -4 -14 3 -26 2
-26 -3 0 -5 -6 -10 -14 -10 -8 0 -12 6 -9 14 6 15 59 18 68 3z m50 -20 c3 -5
2 -10 -4 -10 -5 0 -13 5 -16 10 -3 6 -2 10 4 10 5 0 13 -4 16 -10z m-180 -10
c-3 -5 -12 -10 -18 -10 -7 0 -6 4 3 10 19 12 23 12 15 0z m85 -60 c0 -5 -5
-10 -11 -10 -5 0 -7 5 -4 10 3 6 8 10 11 10 2 0 4 -4 4 -10z m-50 -20 c0 -5
-7 -7 -15 -4 -8 4 -15 8 -15 10 0 2 7 4 15 4 8 0 15 -4 15 -10z"/>
<path d="M2035 4340 c3 -5 8 -10 11 -10 2 0 4 5 4 10 0 6 -5 10 -11 10 -5 0
-7 -4 -4 -10z"/>
<path d="M1960 4259 c0 -5 9 -9 20 -9 11 0 20 4 20 8 0 4 -9 8 -20 9 -11 1
-20 -2 -20 -8z"/>
<path d="M1936 4239 c5 -8 -1 -10 -19 -5 -21 5 -26 3 -24 -14 1 -15 6 -18 24
-14 13 4 30 1 37 -5 9 -7 17 -8 20 -3 3 6 -3 12 -14 15 -13 3 -18 10 -14 21 3
9 1 16 -6 16 -6 0 -8 -5 -4 -11z"/>
<path d="M2190 4220 c0 -5 5 -10 10 -10 6 0 10 5 10 10 0 6 -4 10 -10 10 -5 0
-10 -4 -10 -10z"/>
<path d="M2030 4210 c0 -5 5 -10 11 -10 5 0 7 5 4 10 -3 6 -8 10 -11 10 -2 0
-4 -4 -4 -10z"/>
<path d="M1932 4190 c2 -7 15 -20 29 -29 l24 -16 -16 24 c-17 27 -44 42 -37
21z"/>
<path d="M2240 4190 c0 -5 5 -10 10 -10 6 0 10 5 10 10 0 6 -4 10 -10 10 -5 0
-10 -4 -10 -10z"/>
<path d="M1990 4175 c0 -8 5 -15 10 -15 6 0 10 7 10 15 0 8 -4 15 -10 15 -5 0
-10 -7 -10 -15z"/>
<path d="M2030 4165 c7 -9 15 -13 17 -11 7 7 -7 26 -19 26 -6 0 -6 -6 2 -15z"/>
<path d="M2090 4140 c8 -5 22 -10 30 -10 13 0 13 1 0 10 -8 5 -22 10 -30 10
-13 0 -13 -1 0 -10z"/>
<path d="M2210 4140 c0 -5 5 -10 10 -10 6 0 10 5 10 10 0 6 -4 10 -10 10 -5 0
-10 -4 -10 -10z"/>
<path d="M1791 4121 c-11 -7 -8 -12 12 -26 14 -9 31 -14 37 -10 14 9 52 -4 45
-16 -4 -5 4 -9 17 -9 22 0 22 1 -7 29 -32 31 -81 46 -104 32z"/>
<path d="M2060 4120 c0 -5 12 -17 26 -27 24 -15 24 -18 8 -23 -10 -4 -13 -9
-8 -12 5 -4 21 2 34 13 20 15 22 19 8 19 -10 0 -18 4 -18 8 0 5 -11 14 -25 20
-15 7 -25 8 -25 2z"/>
<path d="M2150 4110 c0 -6 7 -10 15 -10 8 0 15 2 15 4 0 2 -7 6 -15 10 -8 3
-15 1 -15 -4z"/>
<path d="M2270 4090 c0 -5 5 -10 11 -10 5 0 7 5 4 10 -3 6 -8 10 -11 10 -2 0
-4 -4 -4 -10z"/>
<path d="M2310 4070 c0 -5 5 -10 10 -10 6 0 10 5 10 10 0 6 -4 10 -10 10 -5 0
-10 -4 -10 -10z"/>
<path d="M2270 4060 c0 -5 7 -10 15 -10 8 0 15 5 15 10 0 6 -7 10 -15 10 -8 0
-15 -4 -15 -10z"/>
<path d="M1940 4050 c0 -5 5 -10 10 -10 6 0 10 5 10 10 0 6 -4 10 -10 10 -5 0
-10 -4 -10 -10z"/>
<path d="M2000 4050 c0 -5 5 -10 11 -10 5 0 7 5 4 10 -3 6 -8 10 -11 10 -2 0
-4 -4 -4 -10z"/>
<path d="M2072 4038 c3 -14 18 -28 31 -28 14 0 7 15 -13 28 -16 10 -20 10 -18
0z"/>
<path d="M2210 4030 c0 -5 7 -7 15 -4 8 4 15 8 15 10 0 2 -7 4 -15 4 -8 0 -15
-4 -15 -10z"/>
<path d="M2265 4029 c-12 -19 5 -23 22 -6 16 16 16 17 1 17 -9 0 -20 -5 -23
-11z"/>
<path d="M2168 4003 c7 -3 16 -2 19 1 4 3 -2 6 -13 5 -11 0 -14 -3 -6 -6z"/>
<path d="M2363 4002 c-34 -5 -28 -22 7 -19 16 1 30 5 30 9 0 11 -13 14 -37 10z"/>
<path d="M2257 3975 c12 -8 29 -12 38 -9 9 4 15 3 14 -2 -3 -14 21 -68 27 -61
3 3 1 14 -5 25 -6 11 -8 22 -5 24 8 9 -20 25 -56 32 -34 6 -34 6 -13 -9z"/>
<path d="M2380 3955 c-7 -9 -19 -14 -27 -11 -8 3 -11 1 -8 -4 9 -15 24 -12 47
10 12 11 17 20 11 20 -6 0 -16 -7 -23 -15z"/>
<path d="M2760 3960 c0 -5 5 -10 10 -10 6 0 10 5 10 10 0 6 -4 10 -10 10 -5 0
-10 -4 -10 -10z"/>
<path d="M2230 3950 c0 -5 4 -10 9 -10 6 0 13 5 16 10 3 6 -1 10 -9 10 -9 0
-16 -4 -16 -10z"/>
<path d="M2417 3926 c-6 -15 11 -36 28 -36 7 0 20 -9 30 -20 25 -27 55 -27 48
1 -4 15 -12 20 -29 16 -15 -2 -30 3 -40 14 -10 11 -12 19 -6 19 7 0 12 5 12
10 0 15 -37 12 -43 -4z"/>
<path d="M2825 3920 c-3 -5 -2 -10 4 -10 5 0 13 5 16 10 3 6 2 10 -4 10 -5 0
-13 -4 -16 -10z"/>
<path d="M2798 3893 c7 -3 16 -2 19 1 4 3 -2 6 -13 5 -11 0 -14 -3 -6 -6z"/>
<path d="M2303 3875 c0 -7 3 -14 6 -13 16 1 50 -15 46 -22 -3 -4 4 -10 15 -13
13 -3 20 -14 20 -30 0 -31 42 -67 78 -67 20 0 22 3 13 14 -7 8 -20 12 -30 9
-11 -3 -21 2 -25 12 -4 13 -2 16 9 11 19 -7 19 -1 -2 35 -9 15 -26 29 -37 31
-12 2 -21 10 -20 19 1 9 -4 16 -10 16 -6 0 -23 3 -37 6 -19 5 -26 3 -26 -8z"/>
<path d="M2785 3870 c3 -5 11 -10 16 -10 6 0 7 5 4 10 -3 6 -11 10 -16 10 -6
0 -7 -4 -4 -10z"/>
<path d="M2895 3870 c3 -5 8 -10 11 -10 2 0 4 5 4 10 0 6 -5 10 -11 10 -5 0
-7 -4 -4 -10z"/>
<path d="M2503 3833 c9 -2 23 -2 30 0 6 3 -1 5 -18 5 -16 0 -22 -2 -12 -5z"/>
<path d="M2660 3830 c0 -5 5 -10 11 -10 5 0 7 5 4 10 -3 6 -8 10 -11 10 -2 0
-4 -4 -4 -10z"/>
<path d="M1965 3800 c3 -5 1 -10 -6 -10 -7 0 -10 -2 -7 -5 8 -9 38 6 32 16 -3
5 -10 9 -15 9 -6 0 -7 -4 -4 -10z"/>
<path d="M2000 3796 c0 -2 7 -7 16 -10 8 -3 12 -2 9 4 -6 10 -25 14 -25 6z"/>
<path d="M2488 3792 c-16 -2 -28 -8 -28 -14 0 -6 13 -8 35 -4 22 4 35 3 35 -4
0 -5 5 -10 10 -10 6 0 10 3 10 8 0 14 -35 27 -62 24z"/>
<path d="M1825 3760 c-4 -6 3 -10 14 -10 25 0 27 6 6 13 -8 4 -17 2 -20 -3z"/>
<path d="M2574 3756 c20 -16 20 -16 0 -18 -10 0 -28 0 -40 1 -12 1 -21 -5 -21
-14 0 -19 12 -19 73 1 56 19 71 29 46 31 -9 1 -30 5 -47 8 -29 6 -29 6 -11 -9z"/>
<path d="M2080 3751 c0 -5 5 -13 10 -16 6 -4 8 -10 6 -14 -7 -11 29 -30 43
-22 8 5 1 16 -23 35 -20 15 -36 23 -36 17z"/>
<path d="M2110 3750 c0 -5 5 -10 11 -10 5 0 7 5 4 10 -3 6 -8 10 -11 10 -2 0
-4 -4 -4 -10z"/>
<path d="M2905 3750 c3 -5 8 -10 11 -10 2 0 4 5 4 10 0 6 -5 10 -11 10 -5 0
-7 -4 -4 -10z"/>
<path d="M2670 3726 c20 -18 65 -32 56 -17 -4 6 -14 11 -22 11 -8 0 -14 5 -14
10 0 6 -8 10 -17 10 -15 0 -15 -2 -3 -14z"/>
<path d="M2200 3701 c0 -5 -3 -18 -6 -28 -6 -16 -5 -16 9 2 19 23 21 35 7 35
-5 0 -10 -4 -10 -9z"/>
<path d="M2455 3690 c3 -5 8 -10 11 -10 2 0 4 5 4 10 0 6 -5 10 -11 10 -5 0
-7 -4 -4 -10z"/>
<path d="M2210 3670 c0 -5 5 -10 10 -10 6 0 10 5 10 10 0 6 -4 10 -10 10 -5 0
-10 -4 -10 -10z"/>
<path d="M2523 3645 c0 -8 4 -15 9 -15 4 0 8 7 8 15 0 8 -4 15 -8 15 -5 0 -9
-7 -9 -15z"/>
<path d="M2559 3607 c15 -18 51 -23 51 -7 0 6 -6 10 -14 10 -8 0 -23 3 -33 7
-16 6 -16 5 -4 -10z"/>
<path d="M2680 3520 c0 -19 56 -73 71 -68 9 4 5 9 -15 17 -24 10 -27 15 -22
39 3 15 3 21 0 15 -3 -7 -10 -13 -15 -13 -6 0 -7 5 -4 10 3 6 1 10 -4 10 -6 0
-11 -4 -11 -10z"/>
<path d="M2762 3503 c2 -10 11 -19 21 -21 24 -5 21 15 -4 28 -18 10 -20 9 -17
-7z"/>
<path d="M2830 3495 c7 -8 20 -15 29 -15 13 1 13 3 -3 15 -26 19 -42 19 -26 0z"/>
<path d="M2895 3490 c3 -5 11 -10 16 -10 6 0 7 5 4 10 -3 6 -11 10 -16 10 -6
0 -7 -4 -4 -10z"/>
<path d="M2910 3450 c0 -5 5 -10 11 -10 5 0 7 5 4 10 -3 6 -8 10 -11 10 -2 0
-4 -4 -4 -10z"/>
<path d="M2784 3431 c20 -22 26 -25 26 -13 0 4 -10 13 -22 21 -23 14 -23 14
-4 -8z"/>
<path d="M2960 3443 c0 -7 32 -32 43 -33 17 0 5 18 -18 28 -14 6 -25 9 -25 5z"/>
<path d="M2894 3406 c11 -9 24 -16 30 -16 12 0 7 5 -24 19 -24 11 -24 11 -6
-3z"/>
<path d="M3110 3410 c-12 -7 -10 -9 8 -7 12 0 22 5 22 9 0 11 -12 10 -30 -2z"/>
<path d="M3164 3406 c11 -9 27 -16 35 -16 21 0 2 16 -29 24 -24 7 -24 6 -6 -8z"/>
<path d="M2948 3393 c7 -3 16 -2 19 1 4 3 -2 6 -13 5 -11 0 -14 -3 -6 -6z"/>
<path d="M3260 3380 c0 -5 4 -10 9 -10 5 0 18 -3 28 -7 16 -6 16 -5 4 10 -15
19 -41 23 -41 7z"/>
<path d="M2985 3360 c-4 -6 -16 -8 -28 -5 -21 5 -21 5 1 -7 17 -8 25 -9 34 0
6 6 9 14 6 17 -3 4 -9 1 -13 -5z"/>
<path d="M3083 3353 c9 -2 23 -2 30 0 6 3 -1 5 -18 5 -16 0 -22 -2 -12 -5z"/>
<path d="M2890 3320 c0 -5 11 -10 25 -10 14 0 25 5 25 10 0 6 -11 10 -25 10
-14 0 -25 -4 -25 -10z"/>
<path d="M2950 3316 c0 -8 7 -19 15 -26 21 -18 19 -29 -5 -23 -11 3 -20 0 -20
-6 0 -13 29 -14 50 -1 10 6 22 4 38 -6 27 -18 40 -13 18 5 -8 7 -14 18 -12 24
1 7 1 9 -1 5 -5 -9 -54 1 -68 13 -5 6 5 7 25 3 42 -8 36 3 -9 16 -23 6 -31 5
-31 -4z"/>
<path d="M3340 3314 c0 -8 5 -12 10 -9 6 4 8 11 5 16 -9 14 -15 11 -15 -7z"/>
<path d="M2850 3299 c0 -5 10 -9 22 -9 12 0 18 3 14 7 -10 11 -36 12 -36 2z"/>
<path d="M3055 3300 c3 -5 8 -10 11 -10 2 0 4 5 4 10 0 6 -5 10 -11 10 -5 0
-7 -4 -4 -10z"/>
<path d="M3167 3289 c12 -12 25 -20 28 -17 3 3 -7 13 -22 23 l-28 17 22 -23z"/>
<path d="M2920 3286 c0 -8 -8 -16 -17 -18 -12 -2 -14 -6 -6 -11 6 -4 19 0 27
9 18 18 21 34 6 34 -5 0 -10 -6 -10 -14z"/>
<path d="M3270 3285 c7 -8 17 -15 22 -15 6 0 5 7 -2 15 -7 8 -17 15 -22 15 -6
0 -5 -7 2 -15z"/>
<path d="M3060 3271 c0 -13 29 -35 37 -28 7 8 -15 37 -28 37 -5 0 -9 -4 -9 -9z"/>
<path d="M2870 3243 c8 -3 22 -11 30 -17 13 -10 13 -9 1 7 -7 9 -21 17 -30 16
-13 0 -14 -1 -1 -6z"/>
<path d="M3210 3240 c0 -5 5 -10 10 -10 6 0 10 5 10 10 0 6 -4 10 -10 10 -5 0
-10 -4 -10 -10z"/>
<path d="M3120 3230 c8 -5 20 -10 25 -10 6 0 3 5 -5 10 -8 5 -19 10 -25 10 -5
0 -3 -5 5 -10z"/>
<path d="M2973 3223 c9 -14 47 -24 47 -12 0 5 -4 9 -9 9 -5 0 -17 3 -27 7 -11
4 -15 3 -11 -4z"/>
<path d="M3047 3223 c-11 -11 -8 -20 9 -27 9 -4 13 -2 8 5 -4 8 1 9 15 4 24
-7 29 10 5 19 -20 8 -29 8 -37 -1z"/>
<path d="M2780 3176 c0 -2 9 -6 20 -9 11 -3 18 -1 14 4 -5 9 -34 13 -34 5z"/>
<path d="M2935 3170 c3 -5 13 -10 21 -10 8 0 12 5 9 10 -3 6 -13 10 -21 10 -8
0 -12 -4 -9 -10z"/>
<path d="M2990 3165 c7 -9 15 -13 17 -11 7 7 -7 26 -19 26 -6 0 -6 -6 2 -15z"/>
<path d="M3132 3150 c-7 -11 -9 -20 -4 -20 10 0 32 22 32 32 0 15 -15 8 -28
-12z"/>
<path d="M3247 3157 c-3 -7 3 -13 14 -13 13 0 15 3 7 13 -6 7 -12 13 -13 13
-2 0 -5 -6 -8 -13z"/>
<path d="M2793 3146 c5 -15 47 -20 59 -8 6 6 -3 11 -26 14 -23 2 -35 0 -33 -6z"/>
<path d="M2425 3139 c-12 -19 5 -23 22 -6 16 16 16 17 1 17 -9 0 -20 -5 -23
-11z"/>
<path d="M2480 3138 c0 -8 13 -13 37 -13 50 0 53 20 3 23 -27 2 -40 -1 -40
-10z"/>
<path d="M3077 3139 c7 -7 15 -10 18 -7 3 3 -2 9 -12 12 -14 6 -15 5 -6 -5z"/>
<path d="M3170 3140 c0 -5 6 -10 14 -10 8 0 18 5 21 10 3 6 -3 10 -14 10 -12
0 -21 -4 -21 -10z"/>
<path d="M2735 3130 c-8 -13 5 -13 25 0 13 8 13 10 -2 10 -9 0 -20 -4 -23 -10z"/>
<path d="M2984 3122 c22 -26 36 -28 36 -7 0 8 -4 15 -9 15 -5 0 -18 3 -28 7
-17 6 -17 5 1 -15z"/>
<path d="M2932 3121 c-18 -11 31 -51 62 -51 21 1 21 1 -3 20 -13 11 -30 20
-38 20 -8 0 -11 5 -8 10 7 12 4 12 -13 1z"/>
<path d="M2835 3110 c-3 -5 -1 -10 4 -10 6 0 11 5 11 10 0 6 -2 10 -4 10 -3 0
-8 -4 -11 -10z"/>
<path d="M3250 3116 c0 -2 8 -10 18 -17 15 -13 16 -12 3 4 -13 16 -21 21 -21
13z"/>
<path d="M3068 3100 c6 -8 12 -18 12 -22 0 -13 -38 -9 -43 5 -2 6 -7 10 -10 7
-3 -3 3 -16 14 -30 19 -25 20 -25 34 -5 15 19 15 19 31 -3 8 -12 20 -22 26
-22 6 0 1 11 -12 26 -21 21 -22 27 -10 35 12 9 11 10 -4 5 -10 -4 -26 -1 -35
6 -13 10 -14 10 -3 -2z"/>
<path d="M3239 3080 c13 -11 31 -20 40 -20 10 0 6 7 -14 20 -39 26 -57 25 -26
0z"/>
<path d="M2096 3045 c-8 -8 -26 -16 -40 -17 -14 -1 -26 -8 -26 -15 0 -15 16
-17 25 -3 3 5 12 7 19 4 14 -5 46 20 46 37 0 13 -6 11 -24 -6z"/>
<path d="M3155 3039 c-4 -6 -4 -13 -1 -16 3 -4 6 0 6 7 0 10 4 9 18 -3 21 -19
98 -35 88 -18 -4 6 -17 11 -30 11 -12 0 -31 7 -42 15 -23 17 -31 18 -39 4z"/>
<path d="M3330 3041 c0 -5 -10 -7 -22 -3 -15 4 -19 2 -13 -7 4 -7 17 -10 28
-7 12 3 28 0 36 -7 9 -6 8 -2 -3 11 -21 24 -26 27 -26 13z"/>
<path d="M3077 3019 c7 -7 15 -10 18 -7 3 3 -2 9 -12 12 -14 6 -15 5 -6 -5z"/>
<path d="M3276 3016 c3 -8 13 -17 21 -20 26 -10 25 0 -1 18 -20 13 -24 13 -20
2z"/>
<path d="M3160 3002 c0 -12 19 -26 26 -19 2 2 -2 10 -11 17 -9 8 -15 8 -15 2z"/>
<path d="M3250 2972 c0 -7 3 -12 8 -12 4 0 12 -10 17 -21 9 -19 83 -54 93 -44
8 7 -9 25 -24 25 -8 0 -14 6 -14 13 0 8 -10 22 -22 33 -19 16 -20 16 -9 1 22
-28 4 -33 -24 -7 -14 13 -25 18 -25 12z"/>
<path d="M3433 2965 c0 -8 4 -12 9 -9 4 3 8 9 8 15 0 5 -4 9 -8 9 -5 0 -9 -7
-9 -15z"/>
<path d="M3330 2965 c0 -2 10 -10 23 -16 20 -11 21 -11 8 4 -13 16 -31 23 -31
12z"/>
<path d="M3240 2921 c0 -6 9 -15 20 -21 13 -7 20 -7 20 -1 0 6 -9 15 -20 21
-13 7 -20 7 -20 1z"/>
<path d="M3300 2893 c0 -5 5 -15 10 -23 7 -12 12 -12 22 -2 10 10 10 15 -2 22
-18 12 -30 13 -30 3z"/>
<path d="M3365 2860 c3 -5 8 -10 11 -10 2 0 4 5 4 10 0 6 -5 10 -11 10 -5 0
-7 -4 -4 -10z"/>
<path d="M3500 2681 c0 -5 7 -12 16 -15 14 -5 15 -4 4 9 -14 17 -20 19 -20 6z"/>
<path d="M1230 3479 c0 -5 5 -7 10 -4 6 3 10 8 10 11 0 2 -4 4 -10 4 -5 0 -10
-5 -10 -11z"/>
<path d="M2014 3445 c-19 -14 -19 -14 2 -15 12 0 21 6 21 15 0 18 1 18 -23 0z"/>
<path d="M1746 3432 c-2 -4 -1 -14 5 -22 7 -12 9 -10 9 8 0 23 -5 28 -14 14z"/>
<path d="M1290 3416 c0 -9 30 -14 35 -6 4 6 -3 10 -14 10 -12 0 -21 -2 -21 -4z"/>
<path d="M1505 3400 c-8 -13 5 -13 25 0 13 8 13 10 -2 10 -9 0 -20 -4 -23 -10z"/>
<path d="M1887 3404 c-8 -8 1 -24 13 -24 4 0 10 7 14 15 5 15 -14 21 -27 9z"/>
<path d="M1765 3390 c-3 -5 -1 -10 4 -10 6 0 11 5 11 10 0 6 -2 10 -4 10 -3 0
-8 -4 -11 -10z"/>
<path d="M1690 3380 c0 -5 11 -10 25 -10 14 0 25 5 25 10 0 6 -11 10 -25 10
-14 0 -25 -4 -25 -10z"/>
<path d="M1475 3370 c-4 -6 5 -10 24 -8 17 1 31 6 31 10 0 12 -48 10 -55 -2z"/>
<path d="M1547 3373 c-13 -12 -7 -18 19 -19 14 -1 24 -1 22 0 -2 1 -10 7 -19
14 -9 6 -19 9 -22 5z"/>
<path d="M1816 3364 c-11 -8 -16 -14 -10 -14 13 0 39 18 34 24 -3 2 -14 -2
-24 -10z"/>
<path d="M1720 3345 c7 -8 17 -15 22 -15 6 0 5 7 -2 15 -7 8 -17 15 -22 15 -6
0 -5 -7 2 -15z"/>
<path d="M1498 3343 c6 -2 18 -2 25 0 6 3 1 5 -13 5 -14 0 -19 -2 -12 -5z"/>
<path d="M1750 3316 c0 -9 30 -14 35 -6 4 6 -3 10 -14 10 -12 0 -21 -2 -21 -4z"/>
<path d="M1865 3300 c-3 -5 1 -10 9 -10 9 0 16 5 16 10 0 6 -4 10 -9 10 -6 0
-13 -4 -16 -10z"/>
<path d="M2125 3300 c3 -5 8 -10 11 -10 2 0 4 5 4 10 0 6 -5 10 -11 10 -5 0
-7 -4 -4 -10z"/>
<path d="M1850 3270 c0 -5 5 -10 10 -10 6 0 10 5 10 10 0 6 -4 10 -10 10 -5 0
-10 -4 -10 -10z"/>
<path d="M1811 3261 c-8 -5 -9 -11 -3 -15 5 -3 15 1 22 9 14 16 3 20 -19 6z"/>
<path d="M1017 3253 c-10 -9 -9 -23 2 -23 5 0 11 7 15 15 5 15 -5 20 -17 8z"/>
<path d="M2470 3060 c-13 -8 -12 -11 5 -24 17 -12 22 -13 34 -1 25 25 -6 46
-39 25z"/>
<path d="M2534 3053 c10 -11 37 -12 30 -2 -3 5 -12 9 -21 9 -9 0 -13 -3 -9 -7z"/>
<path d="M2580 3011 c0 -10 41 -45 63 -55 8 -3 1 -14 -18 -30 -16 -14 -26 -26
-21 -26 4 0 20 10 35 23 27 22 31 57 7 57 -7 0 -25 9 -40 21 -14 11 -26 16
-26 10z"/>
<path d="M2755 2970 c3 -5 11 -10 16 -10 6 0 7 5 4 10 -3 6 -11 10 -16 10 -6
0 -7 -4 -4 -10z"/>
<path d="M2686 2954 c-7 -18 10 -44 27 -44 5 0 2 8 -7 19 -16 18 -15 18 11 14
27 -4 27 -4 9 11 -25 20 -32 20 -40 0z"/>
<path d="M1816 2905 c-4 -13 -2 -14 14 -5 23 13 26 20 6 20 -8 0 -16 -7 -20
-15z"/>
<path d="M1655 2760 c3 -5 11 -10 16 -10 6 0 7 5 4 10 -3 6 -11 10 -16 10 -6
0 -7 -4 -4 -10z"/>
<path d="M1970 2779 c0 -5 5 -7 10 -4 6 3 10 8 10 11 0 2 -4 4 -10 4 -5 0 -10
-5 -10 -11z"/>
<path d="M1755 2710 c-3 -5 -2 -10 4 -10 5 0 13 5 16 10 3 6 2 10 -4 10 -5 0
-13 -4 -16 -10z"/>
</g>
</svg>
